<?xml version="1.0" encoding="UTF-8"?>
<!DOCTYPE svg PUBLIC "-//W3C//DTD SVG 1.1//EN" "http://www.w3.org/Graphics/SVG/1.1/DTD/svg11.dtd">
<!-- Creator: CorelDRAW 2021 (64-Bit) -->
<svg xmlns="http://www.w3.org/2000/svg" xml:space="preserve" width="210mm" height="297mm" version="1.1" style="shape-rendering:geometricPrecision; text-rendering:geometricPrecision; image-rendering:optimizeQuality; fill-rule:evenodd; clip-rule:evenodd"
viewBox="0 0 21000 29700"
 xmlns:xlink="http://www.w3.org/1999/xlink"
 xmlns:xodm="http://www.corel.com/coreldraw/odm/2003">
 <defs>
  <style type="text/css">
   <![CDATA[
    .fil0 {fill:black;fill-rule:nonzero}
   ]]>
  </style>
 </defs>
 <g id="Capa_x0020_1">
  <metadata id="CorelCorpID_0Corel-Layer"/>
  <g id="_1773687337808">
   <path class="fil0" d="M9726.19 5452.31c-285.75,98.78 -444.5,352.78 -448.03,698.5 0,416.28 285.75,730.25 663.22,730.25 282.22,0 522.1,-211.67 610.3,-543.28 98.78,-366.89 -137.58,-804.33 -490.35,-903.11 -162.28,-42.33 -169.33,-42.33 -335.14,17.64zm324.56 21.17c186.97,67.03 250.47,250.47 254,747.89 7.06,483.31 -84.67,624.42 -391.58,624.42 -282.22,0 -388.06,-215.19 -388.06,-776.11 0,-395.11 63.5,-539.75 254,-596.19 155.22,-42.33 144.64,-42.33 271.64,0l0 -0.01z"/>
   <path class="fil0" d="M11500.65 5540.51c45.86,21.17 91.72,42.33 95.25,49.39 10.58,10.58 -112.89,691.44 -201.08,1135.94 -35.28,169.33 -45.86,179.92 -134.06,169.33 -52.92,-7.06 -14.11,10.58 81.14,35.28 98.78,28.22 215.19,49.39 264.58,49.39 56.44,0 67.03,-7.06 28.22,-17.64 -35.28,-7.06 -63.5,-28.22 -63.5,-38.81 0,-31.75 204.61,-1125.36 229.31,-1234.72 14.11,-63.5 35.28,-74.08 105.83,-56.44 49.39,10.58 88.19,14.11 88.19,3.53 0,-17.64 -211.67,-67.03 -493.89,-116.42l-88.19 -14.11 88.19 35.28 0.01 0z"/>
   <path class="fil0" d="M8572.61 5593.42c-127,28.22 -162.28,45.86 -98.78,49.39 70.56,3.53 102.31,24.69 116.42,81.14 88.19,388.06 229.31,1202.97 211.67,1227.67 -10.58,21.17 -45.86,35.28 -77.61,35.28 -31.75,0 -49.39,7.06 -38.81,17.64 21.17,24.69 479.78,-70.56 515.06,-105.83 14.11,-14.11 -17.64,-14.11 -74.08,0 -52.92,14.11 -95.25,17.64 -95.25,10.58 0,-10.58 -56.44,-292.81 -123.47,-627.94 -67.03,-335.14 -123.47,-631.47 -123.47,-656.17 0,-24.69 35.28,-52.92 81.14,-59.97 70.56,-14.11 70.56,-14.11 -10.58,-17.64 -49.39,0 -176.39,21.17 -282.22,45.86l-0.02 -0.01z"/>
   <path class="fil0" d="M12319.1 5702.78l95.25 49.39 -218.72 635c-211.67,617.36 -218.72,631.47 -306.92,610.31 -137.58,-31.75 -70.56,7.06 116.42,70.56 91.72,31.75 158.75,42.33 148.17,21.17 -14.11,-17.64 -45.86,-31.75 -74.08,-31.75 -28.22,0 -49.39,-21.17 -49.39,-45.86 0,-52.92 356.31,-1090.08 388.06,-1128.89 14.11,-14.11 67.03,176.39 119.94,423.33 179.92,829.03 239.89,1068.92 268.11,1068.92 14.11,0 119.94,-264.58 232.83,-592.67 109.36,-324.56 215.19,-624.42 232.83,-670.28 24.69,-70.56 38.81,-74.08 102.31,-42.33 38.81,24.69 81.14,31.75 91.72,21.17 24.69,-21.17 -119.94,-81.14 -264.58,-109.36 -88.19,-17.64 -88.19,-17.64 -17.64,14.11l77.61 35.28 -162.28 483.31c-112.89,331.61 -172.86,462.14 -186.97,416.28 -14.11,-38.81 -77.61,-306.92 -141.11,-603.25l-112.89 -532.69 -194.03 -74.08c-225.78,-84.67 -282.22,-91.72 -144.64,-17.64l0 -0.03z"/>
   <path class="fil0" d="M7306.14 5967.37c-313.97,105.83 -398.64,151.69 -229.31,116.42l102.31 -17.64 208.14 592.67c116.42,324.56 215.19,610.31 222.25,631.47 7.06,21.17 -59.97,67.03 -148.17,102.31 -141.11,52.92 -169.33,52.92 -222.25,10.58 -31.75,-28.22 -278.69,-246.94 -546.81,-483.31 -268.11,-239.89 -493.89,-430.39 -500.94,-423.33 -7.06,7.06 52.92,335.14 134.06,726.72 144.64,705.56 144.64,716.14 77.61,765.53 -123.47,91.72 -24.69,59.97 158.75,-52.92 197.56,-119.94 236.36,-169.33 67.03,-84.67 -59.97,31.75 -112.89,52.92 -119.94,45.86 -14.11,-17.64 -91.72,-391.58 -81.14,-398.64 331.61,-215.19 388.06,-215.19 567.97,-24.69l102.31 105.83 -81.14 56.44c-144.64,98.78 -42.33,59.97 179.92,-70.56 116.42,-67.03 324.56,-162.28 458.61,-208.14 299.86,-102.31 423.33,-165.81 261.06,-137.58l-112.89 21.17 -105.83 -321.03 -105.83 -317.5 119.94 -38.81c165.81,-56.44 268.11,14.11 398.64,275.17 137.58,271.64 183.44,310.44 321.03,254 56.44,-24.69 123.47,-70.56 148.17,-102.31 42.33,-49.39 38.81,-52.92 -14.11,-7.06 -91.72,70.56 -148.17,28.22 -204.61,-137.58 -70.56,-211.67 -211.67,-352.78 -359.83,-352.78 -95.25,-3.53 -105.83,-7.06 -52.92,-38.81 31.75,-17.64 84.67,-84.67 116.42,-141.11 116.42,-225.78 -45.86,-458.61 -317.5,-451.56 -77.61,0 -278.69,49.39 -440.97,105.83l-0.03 0.03zm486.83 -14.11c38.81,35.28 91.72,137.58 116.42,229.31 38.81,148.17 35.28,172.86 -21.17,236.36 -59.97,67.03 -292.81,169.33 -317.5,137.58 -17.64,-21.17 -197.56,-567.97 -186.97,-575.03 24.69,-21.17 225.78,-84.67 275.17,-84.67 31.75,-3.53 91.72,24.69 134.06,56.44l-0.01 0.01zm-1262.94 1107.72c116.42,98.78 208.14,190.5 208.14,201.08 0,38.81 -285.75,190.5 -310.44,165.81 -28.22,-28.22 -141.11,-546.81 -119.94,-546.81 7.06,0 109.36,81.14 222.25,179.92l-0.01 0z"/>
   <path class="fil0" d="M13769.02 6249.59c31.75,17.64 59.97,49.39 59.97,67.03 0,17.64 -144.64,285.75 -324.56,596.19 -289.28,504.47 -331.61,560.92 -391.58,529.17 -35.28,-21.17 -74.08,-31.75 -81.14,-21.17 -7.06,7.06 141.11,98.78 328.08,204.61 296.33,162.28 370.42,190.5 529.17,186.97 239.89,0 430.39,-127 575.03,-377.47 176.39,-306.92 141.11,-624.42 -95.25,-839.61 -105.83,-95.25 -585.61,-384.53 -635,-384.53 -14.11,0 0,17.64 35.28,38.81zm419.8 250.47c317.5,179.92 317.5,493.89 -7.06,966.61 -123.47,176.39 -289.28,296.33 -416.28,296.33 -84.67,0 -342.19,-116.42 -373.94,-172.86 -17.64,-28.22 610.31,-1167.69 645.58,-1167.69 7.06,0 74.08,35.28 151.69,77.61l0.01 0z"/>
   <path class="fil0" d="M15056.65 7053.92l84.67 74.08 -349.25 409.22c-190.5,225.78 -388.06,462.14 -437.44,522.11 -95.25,109.36 -95.25,109.36 -169.33,42.33 -42.33,-38.81 -74.08,-56.44 -74.08,-45.86 0,38.81 751.42,659.69 797.28,659.69 45.86,0 268.11,-250.47 243.42,-275.17 -7.06,-7.06 -59.97,17.64 -116.42,59.97 -59.97,42.33 -144.64,74.08 -194.03,74.08 -70.56,0 -239.89,-112.89 -405.69,-264.58 -7.06,-7.06 84.67,-130.53 208.14,-275.17 211.67,-257.53 222.25,-264.58 299.86,-215.19 102.31,70.56 130.53,144.64 81.14,232.83 -70.56,130.53 -14.11,98.78 137.58,-77.61 84.67,-98.78 137.58,-176.39 116.42,-176.39 -17.64,0 -45.86,14.11 -56.44,35.28 -35.28,59.97 -179.92,38.81 -246.94,-35.28 -67.03,-74.08 -59.97,-91.72 218.72,-419.81l105.83 -123.47 162.28 151.69c179.92,165.81 197.56,229.31 109.36,402.17l-52.92 112.89 123.47 -130.53c70.56,-74.08 127,-144.64 123.47,-158.75 0,-31.75 -698.5,-624.42 -751.42,-638.53 -21.17,-7.06 0,21.17 42.33,59.97l-0.01 0.03z"/>
   <path class="fil0" d="M5196.53 7173.87c-98.78,81.14 -183.44,162.28 -183.44,179.92 -3.53,17.64 28.22,3.53 67.03,-31.75 38.81,-35.28 77.61,-56.44 81.14,-49.39 7.06,7.06 197.56,246.94 419.81,529.17l409.22 515.06 -74.08 81.14 -77.61 81.14 105.83 -74.08c59.97,-38.81 162.28,-123.47 232.83,-190.5 67.03,-63.5 98.78,-95.25 67.03,-74.08 -31.75,24.69 -67.03,45.86 -77.61,45.86 -21.17,0 -758.47,-920.75 -814.92,-1012.47 -21.17,-35.28 -10.58,-67.03 35.28,-98.78 35.28,-28.22 49.39,-49.39 28.22,-49.39 -17.64,0 -116.42,67.03 -218.72,148.17l-0.01 -0.02z"/>
   <path class="fil0" d="M4568.58 7830.03c-130.53,59.97 -652.64,560.92 -652.64,624.42 0,17.64 35.28,-3.53 77.61,-45.86l74.08 -77.61 490.36 462.14c465.67,440.97 486.83,465.67 430.39,529.17 -35.28,35.28 -52.92,70.56 -45.86,77.61 7.06,7.06 134.06,-119.94 282.22,-282.22 303.39,-328.08 381,-511.53 313.97,-747.89 -52.92,-208.14 -229.31,-416.28 -430.39,-515.06 -215.19,-109.36 -345.72,-112.89 -539.75,-24.69l0.01 -0.01zm285.75 112.89c208.14,98.78 567.97,490.36 596.19,645.58 31.75,155.22 7.06,218.72 -134.06,388.06l-116.42 137.58 -500.94 -469.19 -504.47 -469.19 98.78 -105.83c98.78,-105.83 264.58,-197.56 359.83,-201.08 28.22,0 119.94,31.75 201.08,74.08l0.01 -0.01z"/>
   <path class="fil0" d="M16065.6 7935.87c52.92,81.14 45.86,88.19 -465.67,522.11l-515.06 440.97 -63.5 -77.61c-35.28,-42.33 -63.5,-63.5 -63.5,-49.39 0,17.64 84.67,119.94 186.97,229.31 98.78,109.36 158.75,165.81 130.53,127 -49.39,-63.5 -38.81,-81.14 176.39,-271.64l229.31 -208.14 144.64 141.11c172.86,169.33 313.97,215.19 458.61,155.22 257.53,-109.36 317.5,-359.83 144.64,-603.25 -112.89,-162.28 -440.97,-525.64 -363.36,-405.69zm285.75 345.72c130.53,148.17 112.89,278.69 -52.92,440.97 -183.44,169.33 -328.08,179.92 -469.19,35.28 -52.92,-52.92 -95.25,-109.36 -95.25,-119.94 0,-21.17 497.42,-451.56 518.58,-451.56 7.06,0 52.92,42.33 98.78,95.25z"/>
   <path class="fil0" d="M16862.88 8923.65c21.17,45.86 28.22,91.72 10.58,105.83 -14.11,14.11 -271.64,176.39 -571.5,356.31l-539.75 328.08 -70.56 -84.67 -67.03 -84.67 45.86 88.19c130.53,250.47 469.19,786.69 511.53,800.81 42.33,17.64 381,-158.75 356.31,-186.97 -7.06,-7.06 -70.56,7.06 -141.11,28.22 -190.5,56.44 -289.28,14.11 -412.75,-176.39 -59.97,-95.25 -109.36,-179.92 -109.36,-194.03 0,-10.58 98.78,-77.61 222.25,-151.69 119.94,-74.08 250.47,-155.22 292.81,-179.92 67.03,-42.33 77.61,-35.28 137.58,77.61l67.03 119.94 -84.67 95.25 -88.19 95.25 141.11 -81.14c77.61,-45.86 172.86,-105.83 211.67,-134.06 67.03,-49.39 67.03,-49.39 -17.64,-28.22 -49.39,10.58 -105.83,7.06 -127,-7.06 -38.81,-24.69 -119.94,-158.75 -119.94,-197.56 0,-21.17 469.19,-303.39 504.47,-303.39 38.81,0 201.08,303.39 201.08,381 0,38.81 -42.33,123.47 -95.25,186.97l-95.25 112.89 105.83 -56.44c254,-134.06 254,-109.36 -3.53,-536.22 -222.25,-363.36 -359.83,-560.92 -264.58,-373.94l0 0.02z"/>
   <path class="fil0" d="M11172.57 9981.98l-342.19 1058.33 -151.69 14.11c-81.14,7.06 17.64,10.58 222.25,10.58 204.61,0 285.75,-3.53 186.97,-10.58 -102.31,-7.06 -186.97,-24.69 -186.97,-35.28 0,-14.11 42.33,-155.22 95.25,-317.5l95.25 -296.33 313.97 10.58 313.97 10.58 102.31 278.69c56.44,155.22 102.31,292.81 102.31,306.92 0,17.64 -74.08,35.28 -165.81,42.33 -95.25,7.06 45.86,14.11 306.92,14.11 261.06,0 412.75,-10.58 335.14,-21.17l-141.11 -21.17 -345.72 -1051.28c-190.5,-575.03 -356.31,-1047.75 -370.42,-1047.75 -14.11,0 -179.92,476.25 -370.42,1054.81l-0.01 0.02zm246.95 384.53c-155.22,7.06 -285.75,3.53 -292.81,-3.53 -14.11,-10.58 225.78,-797.28 261.06,-853.72 10.58,-17.64 84.67,165.81 165.81,405.69l148.17 440.97 -282.22 10.58 -0.01 0.01z"/>
   <path class="fil0" d="M8812.5 8987.15l148.17 14.11 0 1019.53 0 1019.53 -148.17 14.11c-84.67,7.06 236.36,10.58 712.61,10.58l864.3 -3.53 10.58 -310.44c10.58,-321.03 -35.27,-398.64 -81.13,-137.58 -56.44,342.19 -204.61,430.39 -730.25,430.39l-310.44 0 0 -1019.53 0 -1023.06 151.69 -14.11c81.14,-7.06 -56.44,-14.11 -310.44,-14.11 -250.47,0 -391.58,7.06 -306.92,14.11z"/>
   <path class="fil0" d="M17519.04 10077.23l21.17 105.83 -613.83 236.36 -610.31 236.36 -59.97 -77.61c-56.44,-77.61 -56.44,-70.56 0,84.67 35.28,91.72 74.08,179.92 88.19,194.03 17.64,14.11 14.11,-14.11 -7.06,-67.03 -35.28,-91.72 -28.22,-98.78 148.17,-165.81 102.31,-35.28 370.42,-141.11 599.72,-225.78 225.78,-88.19 412.75,-155.22 412.75,-151.69 0,3.53 -215.19,282.22 -476.25,620.89 -261.06,338.67 -462.14,627.94 -444.5,645.58 14.11,14.11 215.19,-45.86 448.03,-137.58 229.31,-88.19 518.58,-197.56 638.53,-243.42l222.25 -84.67 52.92 95.25c84.67,158.75 56.44,38.81 -38.81,-151.69 -45.86,-98.78 -77.61,-144.64 -63.5,-105.83 10.58,38.81 21.17,84.67 24.69,98.78 7.06,31.75 -889,391.58 -910.17,370.42 -7.06,-7.06 151.69,-225.78 356.31,-486.83 391.58,-508 381,-483.31 257.53,-758.47 -56.44,-127 -59.97,-130.53 -45.86,-31.75l0 -0.01z"/>
   <path class="fil0" d="M18044.68 11544.78c17.64,84.67 7.06,98.78 -95.25,116.42 -63.5,10.58 -363.36,63.5 -663.22,116.42l-546.81 98.77 -42.33 -88.18 -42.33 -91.72 14.11 88.19c130.53,737.3 130.53,740.82 289.28,885.46 151.69,144.64 232.83,172.86 476.25,172.86 391.58,-3.53 680.86,-211.67 723.19,-525.64 21.17,-148.17 -45.86,-673.8 -102.31,-797.27 -24.69,-56.44 -24.69,-52.92 -10.58,24.69zm74.09 469.19c28.22,204.61 -3.53,321.03 -116.42,426.86 -123.47,112.89 -285.75,158.75 -645.58,179.92 -289.28,17.64 -306.92,14.11 -412.75,-74.08 -81.14,-67.03 -119.94,-144.64 -148.17,-275.17 -21.17,-98.78 -35.28,-183.44 -31.75,-186.97 17.64,-14.11 1167.69,-218.72 1252.36,-225.78 63.5,-3.52 81.14,21.17 102.31,155.22z"/>
   <path class="fil0" d="M18242.24 13061.72c-3.53,95.25 -7.06,98.78 -222.25,98.78 -123.47,0 -423.33,10.58 -670.28,24.69l-444.5 21.17 -17.64 -102.31c-7.06,-56.44 -14.11,31.75 -14.11,197.56 0,165.81 7.06,257.53 14.11,208.14 14.11,-88.19 24.69,-91.72 303.39,-112.89 158.75,-14.11 469.19,-24.69 687.92,-24.69l395.11 0 0 95.25c0,49.39 7.06,84.67 17.64,77.61 7.06,-10.58 3.53,-144.64 -14.11,-299.86 -17.64,-151.69 -31.75,-236.36 -35.28,-183.44l0 -0.01z"/>
   <path class="fil0" d="M8262.16 13322.77c-363.36,179.92 -585.61,560.92 -585.61,1005.42 0,236.36 17.64,303.39 116.42,504.47 398.64,811.39 1340.56,804.33 1728.61,-14.11 77.61,-162.28 91.72,-243.42 91.72,-493.89 0,-356.31 -70.56,-543.28 -299.86,-790.22 -289.28,-313.97 -684.39,-395.11 -1051.28,-211.67zm730.25 45.87c169.33,123.47 225.78,313.97 243.42,836.08 17.64,606.78 -24.69,821.97 -204.61,1016 -134.06,141.11 -141.11,144.64 -366.89,144.64 -264.58,0 -381,-67.03 -490.36,-275.17 -91.72,-179.92 -141.11,-585.61 -116.42,-959.56 35.28,-511.53 119.94,-709.08 352.78,-814.92 148.17,-67.03 451.56,-38.81 582.08,52.92l0 0.01z"/>
   <path class="fil0" d="M10449.38 13305.14c-373.93,186.97 -642.05,691.44 -592.66,1118.31 70.56,620.89 624.41,1118.31 1107.71,994.83 91.72,-21.17 215.19,-77.61 275.17,-123.47l109.36 -84.67 81.14 84.67c45.86,49.39 95.25,88.19 112.89,88.19 14.11,0 28.22,-144.64 28.22,-317.5 0,-176.39 -10.58,-317.5 -24.69,-317.5 -17.64,0 -77.61,91.72 -134.06,201.08 -59.97,109.36 -169.33,246.94 -243.42,306.92 -116.42,95.25 -158.75,109.36 -356.31,109.36 -261.06,0 -370.42,-74.08 -483.3,-328.08 -151.69,-335.14 -116.42,-1277.06 56.43,-1531.06 236.36,-359.83 751.42,-299.86 1001.89,112.89l112.89 190.5 0 -296.33 0 -292.81 -84.67 77.61 -84.67 77.61 -144.64 -70.56c-194.03,-102.31 -532.69,-102.31 -737.31,0l0.03 0.01z"/>
   <path class="fil0" d="M14333.46 14278.8l-352.78 1051.28 -137.58 21.17c-77.61,14.11 21.17,21.17 232.83,21.17 204.61,0 299.86,-7.06 211.67,-14.11 -257.53,-21.17 -254,-14.11 -144.64,-335.14l98.78 -292.81 317.5 -10.58 321.03 -10.58 91.72 275.17c49.39,151.69 91.72,292.81 91.72,317.5 0,24.69 -67.03,45.86 -165.81,56.44 -95.25,7.06 52.92,10.58 324.56,10.58 271.64,0 426.86,-3.53 345.72,-10.58l-151.69 -14.11 -342.19 -1054.81c-190.5,-582.08 -356.31,-1058.33 -370.42,-1058.33 -10.58,0 -179.92,472.72 -370.42,1047.75l0 -0.01zm391.58 -42.33c70.56,215.19 127,398.64 127,416.28 0,14.11 -127,24.69 -282.22,24.69 -197.56,0 -282.22,-14.11 -282.22,-42.33 0,-88.19 264.58,-836.08 285.75,-811.39 14.11,14.11 81.14,201.08 151.69,412.75z"/>
   <path class="fil0" d="M5672.78 13291.02l148.17 14.11 -7.06 1012.47 -10.58 1012.47 -141.11 21.17c-77.61,10.58 105.83,24.69 409.22,28.22 635,3.53 821.97,-35.28 1040.69,-222.25 331.61,-282.22 451.56,-903.11 257.53,-1326.44 -105.83,-225.78 -250.47,-384.53 -444.5,-479.78 -116.42,-56.44 -222.25,-67.03 -769.06,-70.56 -349.25,-3.53 -567.97,3.53 -483.31,10.58l0.01 0.01zm1040.69 59.98c148.17,59.97 292.81,232.83 342.19,402.17 109.36,384.53 67.03,1023.06 -81.14,1291.17 -109.36,194.03 -250.47,268.11 -571.5,292.81l-264.58 21.17 0 -1030.11 0 -1026.58 229.31 0c127,0 282.22,21.17 345.72,49.39l0 -0.02z"/>
   <path class="fil0" d="M11818.15 13351c0,42.33 -10.58,179.92 -21.17,299.86 -17.64,151.69 -10.58,215.19 17.64,215.19 21.17,0 38.81,-21.17 38.81,-45.86 0,-116.42 84.67,-313.97 172.86,-409.22 91.72,-98.78 123.47,-109.36 299.86,-109.36l197.56 0 -7.06 1012.47 -10.58 1016 -141.11 21.17c-77.61,10.58 56.44,21.17 299.86,21.17 243.42,0 377.47,-10.58 299.86,-21.17l-141.11 -21.17 -10.58 -1016 -7.06 -1012.47 197.56 0c169.33,0 211.67,14.11 296.33,98.78 52.92,56.44 119.94,172.86 144.64,257.53 24.69,84.67 56.44,169.33 74.08,190.5 31.75,38.81 38.81,-257.53 7.06,-451.56l-24.69 -130.53 -839.61 0 -843.14 0 0 84.67 -0.01 0z"/>
   <path class="fil0" d="M16834.65 14081.25c-59.97,560.92 -56.44,631.47 21.17,631.47 31.75,0 123.47,10.58 201.08,21.17l141.11 17.64 -162.28 -88.19c-91.72,-49.39 -172.86,-112.89 -186.97,-144.64 -10.58,-31.75 -10.58,-151.69 3.53,-268.11l21.17 -215.19 144.64 21.17c81.14,10.58 236.36,28.22 349.25,42.33 162.28,17.64 201.08,35.28 201.08,84.67 0,116.42 -45.86,183.44 -155.22,232.83l-109.36 45.86 127 3.53c70.56,0 183.44,10.58 246.94,21.17 105.83,17.64 109.36,14.11 49.39,-24.69 -116.42,-67.03 -148.17,-127 -130.53,-243.42 14.11,-95.25 28.22,-105.83 109.36,-91.72 49.39,10.58 183.44,28.22 296.33,38.81l201.08 21.17 0 176.39c0,218.72 -109.36,349.25 -289.28,349.25 -88.19,0 -102.31,10.58 -63.5,35.28 28.22,17.64 119.94,35.28 204.61,35.28 130.53,0 148.17,-10.58 148.17,-81.14 3.53,-42.33 24.69,-261.06 49.39,-483.31 45.86,-402.17 45.86,-518.58 0,-338.67 -24.69,109.36 10.58,105.83 -624.42,38.81 -716.14,-74.08 -723.19,-77.61 -737.31,-169.33 -7.06,-42.33 -31.75,105.83 -56.44,331.61l0.01 -0.03z"/>
   <path class="fil0" d="M16725.29 14903.22c-45.86,186.97 -45.86,246.94 0,134.06 21.17,-56.44 52.92,-77.61 91.72,-63.5 35.28,10.58 296.33,84.67 585.61,165.81 285.75,84.67 518.58,162.28 518.58,172.86 0,10.58 -324.56,105.83 -723.19,211.67 -437.44,116.42 -723.19,211.67 -723.19,236.36 0,24.69 59.97,59.97 134.06,77.61 70.56,21.17 359.83,105.83 642.06,190.5l511.53 151.69 -7.06 102.31 -3.53 105.83 45.86 -109.36c28.22,-59.97 59.97,-155.22 70.56,-211.67l21.17 -102.31 -45.86 95.25 -45.86 91.72 -476.25 -141.11c-261.06,-74.08 -479.78,-141.11 -483.31,-148.17 -7.06,-3.53 254,-77.61 578.56,-165.81 560.92,-148.17 589.14,-158.75 631.47,-261.06 24.69,-59.97 52.92,-155.22 67.03,-215.19 17.64,-88.19 14.11,-91.72 -14.11,-24.69 -21.17,45.86 -52.92,81.14 -77.61,81.14 -21.17,0 -285.75,-74.08 -589.14,-162.28 -306.92,-88.19 -582.08,-169.33 -617.36,-176.39 -42.33,-14.11 -52.92,-42.33 -38.81,-105.83 10.58,-45.86 14.11,-84.67 3.53,-84.67 -7.06,0 -35.28,70.56 -56.44,155.22l-0.02 0.01z"/>
   <path class="fil0" d="M16139.68 16487.19c-134.06,243.42 -162.28,342.19 -56.44,204.61l63.5 -81.14 575.03 292.81c317.5,162.28 585.61,317.5 592.67,338.67 7.06,24.69 -35.28,95.25 -98.78,155.22 -98.78,102.31 -123.47,109.36 -275.17,88.19l-165.81 -17.64 176.39 81.14c98.78,45.86 190.5,77.61 204.61,67.03 31.75,-17.64 483.31,-913.69 483.31,-959.56 0,-35.28 -282.22,-225.78 -306.92,-204.61 -7.06,10.58 24.69,56.44 74.08,105.83 119.94,119.94 144.64,239.89 77.61,370.42l-52.92 105.83 -592.67 -303.39c-324.56,-165.81 -596.19,-303.39 -603.25,-310.44 -7.06,-3.53 3.53,-42.33 28.22,-81.14 21.17,-42.33 31.75,-74.08 21.17,-74.08 -10.58,0 -74.08,102.31 -144.64,222.25l0.01 0z"/>
   <path class="fil0" d="M15539.96 17453.8l-310.44 412.75 119.94 102.31c211.67,176.39 275.17,194.03 158.75,42.33 -137.58,-176.39 -130.53,-289.28 21.17,-486.83l123.47 -162.28 257.53 190.5c141.11,105.83 264.58,201.08 275.17,208.14 7.06,10.58 -10.58,59.97 -45.86,112.89 -52.92,81.14 -77.61,91.72 -186.97,74.08 -134.06,-24.69 -134.06,-24.69 91.72,148.17 81.14,63.5 148.17,98.78 148.17,77.61 0,-17.64 -14.11,-45.86 -35.28,-56.44 -59.97,-35.28 -38.81,-179.92 31.75,-243.42 67.03,-59.97 77.61,-56.44 299.86,109.36 127,91.72 229.31,176.39 232.83,190.5 0,10.58 -49.39,84.67 -109.36,165.81 -130.53,176.39 -239.89,215.19 -409.22,134.06 -67.03,-31.75 -112.89,-45.86 -102.31,-28.22 28.22,45.86 303.39,232.83 317.5,215.19 162.28,-204.61 550.33,-740.83 550.33,-762 0,-14.11 -24.69,0 -52.92,38.81 -45.86,59.97 -77.61,45.86 -560.92,-310.44 -282.22,-208.14 -522.11,-391.58 -532.69,-409.22 -10.58,-17.64 -3.53,-67.03 17.64,-105.83 81.14,-148.17 -3.53,-56.44 -299.86,342.19l0 -0.02z"/>
  </g>
  <path class="fil0" d="M1785.26 13305.46c-101.71,531.08 -69.62,662.21 286.33,1170.53 149.38,211.35 159.81,243.51 66.72,177.49 -59.68,-48.05 -186.99,-166.7 -283.81,-270.7 -123.12,-134.09 -176.96,-175.46 -189.09,-135.38 -30.93,86 302.59,1209.37 430.25,1463.31 102.21,211.33 126,231.79 398.59,388.5 160.72,89.42 290.12,176.76 285.94,192.2 -1.26,18.78 -136.53,-28.04 -298.08,-104.95 -167.82,-77.33 -306.42,-121.23 -304.35,-105.36 -4.2,62.64 460.82,351.8 724.67,451.28 146.95,60.2 262.59,118.29 261.33,137.08 1.66,22.12 -127.36,22.9 -286.45,2.79 -234.23,-25.16 -278.91,-15.58 -251.38,42.89 76.76,168.72 374.27,610.22 581.27,853.75 209.49,253.14 236.63,270.68 653.27,437.06 235.88,94.48 427.91,186 427.06,198.53 -0.84,12.53 -97.71,2.87 -212.1,-26.82 -114.4,-29.7 -211.69,-33.09 -219.63,-8.45 -23.84,73.9 509.96,650.79 826.76,898.54 358.56,282.01 416.58,307.93 731,310.15 225.89,8.87 238.42,9.72 125.24,55.6 -152.01,62.15 -395.54,269.14 -360.49,309.24 14.61,16.71 101.89,-18.34 194.2,-81.33 200.48,-128.1 670.68,-197.2 940.4,-138.21 102.29,22.6 336.9,135.86 520.99,252.02 1313.26,821.09 1425.54,882.11 1758.73,932.78 261.37,42.71 227.57,-16.18 -76.78,-121.54 -550.26,-191.07 -1657.26,-944.84 -1840.84,-1256.01 -124.33,-209.67 -164.74,-451.45 -140.36,-767.52 34.82,-378.29 1.05,-484.36 -229.29,-801.8 -106.41,-148.7 -221.15,-360.86 -257.84,-470.29 -54.63,-170.38 -92.19,-220.09 -244.95,-334.14 -215.81,-159.19 -233.36,-132.05 -171.36,350.24 19.96,171.21 23.24,309.84 7.37,311.92 -40.5,-5.86 -129.27,-370.44 -167.53,-690.71 -33.29,-253.89 -33.72,-247.63 -48.51,160.32 -14.78,360.77 -26.91,400.84 -61.5,260.11 -25.43,-89.79 -61.64,-347.02 -78.67,-562.06 -26.14,-360.37 -52.41,-437.63 -222.23,-719.55 -107.65,-177.1 -214.45,-366.71 -239.06,-421.84 -52.98,-101.07 -52.98,-101.07 -153.74,181.56 -54.36,153.64 -118.76,363.22 -138.01,462.59 -65.28,316.48 -91.53,192.04 -72.49,-372.91 16.08,-473.92 1.1,-578.72 -91.95,-739.11 -168.97,-294.45 -409.34,-603.14 -456.94,-596.89 -22.13,1.66 -62.27,131.08 -84.9,280.56 -68.66,413.77 -113.75,382.42 -90.58,-56.41 10.96,-210.03 10.22,-433.42 -4.78,-491.05 -15,-57.63 -158.97,-256.03 -322.57,-443.17l-295.06 -337.53 -43.55 273.9c-23.03,155.73 -50.65,286 -64.02,297.69 -13.36,11.68 -31.27,-96.47 -40.39,-241.79 -9.54,-139.05 -39.93,-342.42 -64.1,-451l-50.01 -192.1 -43.53 226.72c-44.37,239.23 -73.6,253 -113.17,45.87 -32.92,-165.78 -138.09,-286.09 -342.22,-384.71 -185.77,-91.11 -448.38,-162.22 -481.8,-133.01 -13.36,11.69 -48.5,160.33 -81.99,331.09l-0.02 0.03z"/>
 </g>
</svg>
