<?xml version="1.0" standalone="no"?>
<!DOCTYPE svg PUBLIC "-//W3C//DTD SVG 20010904//EN"
 "http://www.w3.org/TR/2001/REC-SVG-20010904/DTD/svg10.dtd">
<svg version="1.0" xmlns="http://www.w3.org/2000/svg"
 width="500.000000pt" height="250.000000pt" viewBox="0 0 500.000000 250.000000"
 preserveAspectRatio="xMidYMid meet">

<g transform="translate(0.000000,250.000000) scale(0.100000,-0.100000)"
fill="#000000" stroke="none">
<path d="M230 1910 c0 -5 25 -10 55 -10 l55 0 0 -410 0 -410 -55 0 c-30 0 -55
-5 -55 -10 0 -7 116 -9 343 -8 l342 3 3 128 c1 70 -1 127 -6 127 -5 0 -16 -35
-26 -77 -15 -61 -26 -85 -57 -117 l-38 -41 -165 -3 -166 -3 0 410 0 411 60 0
c33 0 60 4 60 10 0 6 -65 10 -175 10 -110 0 -175 -4 -175 -10z"/>
<path d="M1910 1911 c0 -7 23 -11 55 -11 l55 0 0 -410 0 -410 -55 0 c-33 0
-55 -4 -55 -11 0 -7 72 -9 238 -7 218 3 242 6 294 26 266 106 332 530 113 731
-96 87 -130 95 -407 99 -164 2 -238 0 -238 -7z m445 -22 c60 -15 123 -71 152
-137 34 -78 48 -223 35 -354 -14 -129 -33 -185 -83 -242 -51 -57 -104 -76
-221 -76 l-88 0 0 410 0 410 81 0 c44 0 100 -5 124 -11z"/>
<path d="M3978 1734 l-48 -24 0 -75 0 -75 -45 0 c-25 0 -45 -4 -45 -10 0 -5
20 -10 45 -10 l45 0 0 -196 c0 -229 7 -254 74 -285 68 -31 163 -18 191 25 21
32 35 85 25 91 -5 3 -11 -8 -15 -24 -15 -71 -86 -103 -136 -62 -24 19 -24 22
-27 235 l-3 216 60 0 c34 0 61 4 61 10 0 6 -27 10 -60 10 l-60 0 0 100 c0 55
-3 100 -7 100 -5 -1 -29 -12 -55 -26z"/>
<path d="M1150 1568 c-39 -11 -77 -41 -85 -69 -17 -53 64 -85 87 -34 9 19 8
29 -6 49 -15 24 -15 26 3 36 23 12 100 13 118 2 21 -13 33 -62 33 -136 l0 -74
-56 -7 c-116 -14 -186 -53 -216 -122 -13 -30 -17 -53 -12 -78 18 -96 164 -124
253 -50 l28 24 13 -23 c21 -41 80 -57 133 -37 31 12 67 50 67 69 0 9 -8 4 -21
-12 -15 -20 -29 -26 -48 -24 l-26 3 -5 207 c-5 190 -7 209 -26 235 -11 15 -36
33 -55 40 -41 14 -131 15 -179 1z m150 -334 c0 -47 -5 -94 -10 -105 -20 -37
-104 -63 -136 -41 -37 24 -47 140 -16 179 22 29 77 52 125 53 l37 0 0 -86z"/>
<path d="M2931 1568 c-19 -5 -59 -34 -92 -67 -46 -46 -61 -70 -74 -116 -20
-68 -15 -125 16 -188 69 -137 215 -192 330 -125 169 99 190 317 44 446 -65 57
-141 74 -224 50z m149 -33 c11 -10 24 -34 30 -54 14 -50 12 -308 -3 -351 -15
-45 -66 -73 -120 -66 -82 10 -102 58 -102 251 1 155 15 207 65 233 32 17 105
9 130 -13z"/>
<path d="M3519 1567 c-131 -49 -197 -150 -186 -284 6 -77 41 -141 104 -189
115 -87 281 -57 338 62 24 50 12 67 -13 18 -41 -81 -125 -125 -206 -107 -78
16 -105 103 -93 299 6 106 26 158 68 179 34 18 99 19 122 3 15 -11 16 -17 5
-46 -19 -50 15 -91 65 -78 34 8 46 49 26 85 -30 55 -154 86 -230 58z"/>
<path d="M4438 1568 c-52 -14 -90 -51 -86 -85 4 -33 27 -48 61 -39 30 7 37 41
15 76 -17 26 -7 33 57 38 84 7 95 -7 95 -124 l0 -92 -52 -7 c-172 -24 -268
-129 -213 -234 15 -29 76 -61 118 -61 40 0 96 20 124 44 l28 24 17 -29 c21
-34 71 -46 122 -29 35 11 76 52 76 74 0 6 -10 -1 -21 -16 -27 -36 -74 -39 -83
-5 -3 12 -6 107 -6 210 0 116 -4 196 -11 209 -26 48 -146 71 -241 46z m142
-342 c0 -93 0 -95 -31 -120 -37 -32 -90 -35 -118 -7 -28 28 -36 99 -17 145 17
41 77 75 134 76 l32 0 0 -94z"/>
<path d="M683 613 c15 -4 17 -19 17 -138 0 -119 -2 -134 -17 -139 -10 -2 24
-4 74 -3 89 2 94 3 124 33 38 38 52 94 38 149 -21 78 -69 106 -181 104 -40 -1
-65 -3 -55 -6z m154 -18 c31 -22 46 -78 40 -147 -7 -76 -33 -108 -88 -108
l-38 0 -3 131 c-2 72 -1 133 1 135 10 10 68 3 88 -11z"/>
<path d="M1888 613 c21 -4 22 -7 22 -138 0 -131 -1 -134 -22 -138 -13 -2 4 -4
37 -4 33 -1 52 1 43 4 -16 4 -18 19 -18 138 0 119 2 134 18 138 9 3 -10 5 -43
4 -33 0 -50 -2 -37 -4z"/>
<path d="M2353 614 c14 -5 17 -17 17 -64 0 -52 -2 -59 -17 -53 -17 6 -17 5 0
-14 21 -24 23 -109 3 -132 -13 -14 -9 -16 37 -18 29 -1 44 1 35 4 -15 4 -18
22 -20 141 l-3 137 -35 2 c-19 1 -27 -1 -17 -3z"/>
<path d="M3383 613 c14 -4 17 -16 17 -63 0 -52 -2 -59 -17 -53 -17 6 -17 5 0
-14 21 -25 24 -115 3 -136 -12 -12 -7 -14 37 -14 29 -1 44 1 35 4 -16 4 -18
20 -18 144 l0 139 -37 -1 c-21 -1 -30 -3 -20 -6z"/>
<path d="M983 584 c-8 -21 13 -42 28 -27 13 13 5 43 -11 43 -6 0 -13 -7 -17
-16z"/>
<path d="M1467 586 c-9 -22 18 -40 33 -22 6 9 9 20 5 26 -9 15 -32 12 -38 -4z"/>
<path d="M3531 586 c-8 -10 -8 -16 2 -24 17 -14 42 2 34 22 -8 20 -21 20 -36
2z"/>
<path d="M4067 553 c-4 -3 -7 -17 -7 -29 0 -13 -7 -24 -17 -27 -17 -4 -17 -5
0 -6 15 -1 17 -12 17 -76 0 -72 1 -76 26 -86 32 -11 40 -7 19 11 -11 9 -15 32
-15 81 0 62 2 68 23 72 l22 4 -22 2 c-19 1 -23 7 -23 31 0 29 -9 38 -23 23z"/>
<path d="M963 493 c14 -4 17 -16 17 -78 0 -62 -3 -74 -17 -78 -10 -3 7 -5 37
-5 30 0 47 2 38 5 -15 4 -18 17 -18 84 l0 79 -37 -1 c-21 -1 -30 -3 -20 -6z"/>
<path d="M1107 493 c-12 -12 -7 -33 8 -33 17 0 19 9 7 28 -5 7 -11 9 -15 5z"/>
<path d="M1165 423 c0 -72 -2 -78 -22 -81 -33 -5 -42 36 -13 60 17 14 19 18 6
18 -22 0 -56 -36 -56 -60 0 -28 36 -45 67 -31 17 8 30 8 44 1 13 -7 25 -8 37
-1 16 10 16 10 0 11 -15 0 -18 10 -18 68 0 65 -10 92 -34 92 -7 0 -11 -30 -11
-77z"/>
<path d="M1273 493 c14 -4 17 -16 17 -78 0 -62 -3 -74 -17 -78 -10 -3 5 -5 32
-5 28 0 44 2 38 5 -17 6 -17 125 -1 141 17 17 36 15 34 -5 0 -10 7 -19 17 -21
15 -3 18 1 15 20 -3 26 -40 37 -63 18 -9 -7 -15 -8 -20 0 -3 5 -21 9 -38 9
-18 -1 -24 -3 -14 -6z"/>
<path d="M1453 493 c14 -4 17 -16 17 -78 0 -62 -3 -74 -17 -78 -10 -3 5 -5 32
-5 28 0 42 2 33 5 -15 4 -18 17 -18 84 l0 79 -32 -1 c-18 -1 -25 -3 -15 -6z"/>
<path d="M1585 475 c-31 -30 -33 -82 -4 -119 25 -32 44 -35 28 -5 -15 29 -7
128 12 140 11 7 11 9 1 9 -7 0 -24 -11 -37 -25z"/>
<path d="M1663 488 c15 -11 18 -25 15 -78 -3 -57 -6 -66 -28 -77 -18 -9 -20
-13 -8 -13 32 0 81 54 81 89 0 37 -31 84 -59 89 -18 4 -18 3 -1 -10z"/>
<path d="M2033 493 c14 -4 17 -16 17 -78 0 -62 -3 -74 -17 -78 -10 -3 5 -5 32
-5 28 0 42 2 33 5 -14 4 -18 15 -18 58 0 60 25 103 53 92 14 -5 17 -20 17 -76
0 -46 -4 -71 -12 -74 -7 -3 10 -5 37 -5 28 0 42 2 33 5 -15 4 -18 16 -18 72 0
39 -5 72 -12 79 -16 16 -60 15 -77 0 -11 -10 -14 -10 -18 0 -3 6 -19 11 -36
11 -18 -1 -24 -3 -14 -6z"/>
<path d="M2270 475 c-36 -38 -33 -90 8 -126 18 -16 38 -29 44 -29 7 0 2 7 -10
16 -19 13 -22 24 -22 79 0 50 4 66 18 74 14 9 15 10 1 11 -8 0 -26 -11 -39
-25z"/>
<path d="M2493 478 c-29 -33 -35 -57 -22 -95 10 -32 51 -63 81 -63 7 0 2 6
-12 13 -22 11 -25 20 -28 76 -2 38 2 68 9 77 19 23 -6 16 -28 -8z"/>
<path d="M2565 486 c12 -8 16 -20 12 -35 -4 -17 -1 -21 19 -21 13 0 24 4 24 9
0 17 -42 61 -58 61 -13 0 -13 -2 3 -14z"/>
<path d="M2658 493 c9 -3 12 -41 12 -139 0 -127 1 -134 20 -134 18 0 20 7 20
60 0 58 1 60 21 50 43 -24 109 30 109 89 0 21 -46 81 -62 81 -7 0 -6 -5 1 -14
19 -22 10 -136 -11 -150 -13 -8 -22 -6 -37 8 -31 28 -30 119 1 140 12 9 18 16
12 16 -5 0 -15 -5 -22 -12 -9 -9 -12 -9 -12 0 0 7 -13 12 -32 11 -18 0 -27 -3
-20 -6z"/>
<path d="M2893 478 c-29 -32 -37 -65 -22 -99 11 -29 54 -59 81 -59 7 0 2 6
-12 13 -22 11 -25 20 -28 76 -2 38 2 68 9 77 19 23 -6 16 -28 -8z"/>
<path d="M2965 484 c9 -10 14 -25 12 -35 -4 -15 0 -19 19 -19 18 0 22 4 17 18
-9 26 -34 52 -50 52 -12 0 -11 -3 2 -16z"/>
<path d="M3063 493 c14 -4 17 -16 17 -78 0 -62 -3 -74 -17 -78 -10 -3 5 -5 32
-5 28 0 44 2 38 5 -9 3 -13 26 -13 67 0 36 5 68 13 75 8 10 8 12 0 7 -6 -3
-14 -2 -18 4 -3 5 -21 9 -38 9 -18 -1 -24 -3 -14 -6z"/>
<path d="M3163 489 c13 -8 17 -24 17 -79 0 -45 -4 -70 -12 -73 -7 -3 10 -5 37
-5 28 0 42 2 33 5 -15 4 -18 16 -18 72 0 73 -10 91 -49 91 -23 -1 -24 -2 -8
-11z"/>
<path d="M3301 474 c-21 -27 -25 -41 -22 -79 2 -22 54 -75 73 -75 7 0 2 7 -10
16 -18 13 -22 25 -22 74 0 40 5 64 16 74 13 14 13 16 0 16 -8 0 -24 -12 -35
-26z"/>
<path d="M3513 494 c14 -5 17 -18 17 -79 0 -62 -3 -74 -17 -78 -10 -3 5 -5 32
-6 28 0 45 3 38 7 -7 4 -13 38 -15 82 l-3 75 -35 2 c-19 1 -27 -1 -17 -3z"/>
<path d="M3662 493 c-18 -7 -42 -57 -42 -87 0 -31 36 -72 70 -80 24 -6 24 -6
3 5 -12 6 -24 23 -27 38 -9 39 1 113 16 122 14 9 1 11 -20 2z"/>
<path d="M3719 491 c8 -5 12 -19 9 -35 -4 -22 -2 -26 18 -26 15 0 24 6 24 15
0 18 -35 55 -52 55 -9 0 -9 -3 1 -9z"/>
<path d="M3823 493 c14 -4 17 -16 17 -78 0 -62 -3 -74 -17 -78 -10 -3 5 -5 32
-5 28 0 42 2 33 5 -14 4 -18 15 -18 58 0 60 25 103 53 92 14 -5 17 -20 17 -76
0 -46 -4 -71 -12 -74 -7 -3 7 -5 32 -5 25 0 39 2 33 5 -9 3 -13 27 -13 72 0
39 -5 72 -12 79 -17 17 -58 15 -80 -5 -17 -15 -18 -15 -18 0 0 13 -8 17 -32
16 -18 -1 -25 -3 -15 -6z"/>
<path d="M4201 474 c-33 -41 -28 -96 10 -128 17 -14 38 -26 47 -26 12 0 9 4
-8 13 -22 11 -25 19 -27 77 -1 50 2 68 14 78 15 11 15 12 1 12 -9 0 -26 -12
-37 -26z"/>
<path d="M4280 485 c7 -8 10 -24 7 -35 -4 -16 0 -20 19 -20 13 0 24 4 24 9 0
13 -40 61 -52 61 -6 0 -6 -6 2 -15z"/>
<path d="M2593 354 c-13 -14 -18 -24 -11 -22 10 4 45 48 37 48 -2 0 -14 -12
-26 -26z"/>
<path d="M2993 354 c-13 -14 -18 -24 -11 -22 10 4 45 48 37 48 -2 0 -14 -12
-26 -26z"/>
<path d="M4303 353 c-12 -13 -19 -23 -14 -23 10 0 46 39 40 43 -2 2 -14 -7
-26 -20z"/>
<path d="M3745 350 c-16 -17 -16 -20 -3 -15 9 4 19 13 22 21 7 19 2 18 -19 -6z"/>
</g>
</svg>
