<?xml version="1.0" encoding="UTF-8"?>
<!DOCTYPE svg PUBLIC "-//W3C//DTD SVG 1.1//EN" "http://www.w3.org/Graphics/SVG/1.1/DTD/svg11.dtd">
<!-- Creator: CorelDRAW 2021 (64-Bit) -->
<svg xmlns="http://www.w3.org/2000/svg" xml:space="preserve" width="210mm" height="297mm" version="1.1" style="shape-rendering:geometricPrecision; text-rendering:geometricPrecision; image-rendering:optimizeQuality; fill-rule:evenodd; clip-rule:evenodd"
viewBox="0 0 21000 29700"
 xmlns:xlink="http://www.w3.org/1999/xlink"
 xmlns:xodm="http://www.corel.com/coreldraw/odm/2003">
 <defs>
  <style type="text/css">
   <![CDATA[
    .fil0 {fill:#DFDDDD;fill-rule:nonzero}
   ]]>
  </style>
 </defs>
 <g id="Capa_x0020_1">
  <metadata id="CorelCorpID_0Corel-Layer"/>
  <path class="fil0" d="M11399.58 10182.75c-324.56,42.33 -754.94,246.94 -1047.75,493.89 -426.86,356.31 -790.22,948.97 -948.97,1545.17 -109.36,402.17 -109.36,1153.58 -3.53,1545.17 222.25,814.92 737.31,1520.47 1340.56,1834.44 338.67,176.39 571.5,236.36 934.86,236.36 994.83,0 1862.67,-776.11 2233.08,-1993.19 88.19,-285.75 98.78,-370.42 95.25,-846.67 0,-472.72 -10.58,-564.44 -95.25,-843.14 -398.64,-1315.86 -1418.17,-2116.67 -2508.25,-1972.03zm543.28 151.7c433.92,70.56 694.97,271.64 889,684.39 204.61,430.39 225.78,620.89 225.78,1961.44 0,1040.69 -10.58,1255.89 -63.5,1481.67 -127,546.81 -419.81,973.67 -772.58,1132.42 -158.75,70.56 -243.42,84.67 -557.39,84.67 -335.14,0 -391.58,-10.58 -571.5,-98.78 -359.83,-176.39 -582.08,-497.42 -740.83,-1068.92 -74.08,-261.06 -77.61,-352.78 -81.14,-1495.78 0,-1047.75 7.06,-1255.89 63.5,-1485.19 116.42,-497.42 384.53,-931.33 670.28,-1079.5 109.36,-56.44 479.78,-144.64 624.42,-148.17 49.39,-3.53 190.5,14.11 313.97,31.75l-0.01 0z"/>
  <path class="fil0" d="M16497.22 10210.97c-903.11,204.61 -1647.47,1065.39 -1876.78,2169.58 -81.14,391.58 -70.56,1001.89 24.69,1354.67 148.17,557.39 430.39,1065.39 793.75,1432.28 451.56,458.61 896.06,670.28 1404.06,670.28 455.08,0 807.86,-134.06 1114.78,-423.33l179.92 -169.33 222.25 261.06c123.47,144.64 236.36,254 254,243.42 49.39,-31.75 45.86,-1675.69 0,-1675.69 -21.17,0 -98.78,130.53 -172.86,292.81 -292.81,631.47 -627.94,1033.64 -1016,1217.08 -183.44,84.67 -246.94,95.25 -575.03,95.25 -331.61,0 -388.06,-10.58 -550.33,-95.25 -296.33,-155.22 -515.06,-455.08 -642.06,-874.89 -130.53,-426.86 -155.22,-800.81 -141.11,-1905 14.11,-917.22 24.69,-1072.44 91.72,-1312.33 158.75,-582.08 384.53,-903.11 754.94,-1068.92 190.5,-88.19 264.58,-98.78 539.75,-98.78 232.83,0 366.89,21.17 500.94,74.08 416.28,158.75 758.47,522.11 963.08,1019.53 63.5,151.69 127,289.28 144.64,310.44 17.64,17.64 31.75,-278.69 31.75,-730.25 0,-455.08 -14.11,-772.58 -35.28,-786.69 -17.64,-10.58 -116.42,70.56 -218.72,176.39l-190.5 201.08 -186.97 -127c-366.89,-246.94 -959.56,-352.78 -1414.64,-250.47l0.01 -0.02z"/>
  <path class="fil0" d="M-661.89 10253.31c-49.39,176.39 -1548.69,5027.08 -1594.56,5168.19l-56.44 169.33 -310.44 0c-243.42,0 -313.97,10.58 -331.61,52.92 -17.64,45.86 88.19,52.92 825.5,52.92 730.25,0 846.67,-7.06 846.67,-52.92 0,-42.33 -70.56,-52.92 -419.81,-52.92 -232.83,0 -430.39,-10.58 -437.44,-28.22 -10.58,-14.11 88.19,-370.42 218.72,-790.22l232.83 -769.06 765.53 0 765.53 0 197.56 624.42c109.36,345.72 218.72,694.97 246.94,776.11 24.69,81.14 38.81,155.22 24.69,165.81 -10.58,10.58 -183.44,21.17 -384.53,21.17 -299.86,0 -363.36,10.58 -363.36,52.92 0,45.86 148.17,52.92 1111.25,52.92 963.08,0 1111.25,-7.06 1111.25,-52.92 0,-42.33 -59.97,-52.92 -317.5,-52.92 -296.33,0 -321.03,-7.06 -356.31,-81.14 -17.64,-42.33 -398.64,-1252.36 -839.61,-2688.17 -790.22,-2561.17 -871.36,-2779.89 -934.86,-2568.22zm123.48 2522.36l338.67 1086.56 -719.67 0c-606.78,0 -719.67,-7.06 -705.56,-49.39 10.58,-28.22 165.81,-522.11 342.19,-1104.19 179.92,-578.56 335.14,-1065.39 345.72,-1086.56 10.58,-17.64 28.22,-7.06 38.81,17.64 7.06,28.22 169.33,539.75 359.83,1135.94l0.01 0z"/>
  <path class="fil0" d="M26113.94 10253.31c-49.39,176.39 -1548.69,5027.08 -1594.56,5168.19l-56.44 169.33 -310.44 0c-243.42,0 -313.97,10.58 -331.61,52.92 -17.64,45.86 88.19,52.92 825.5,52.92 730.25,0 846.67,-7.06 846.67,-52.92 0,-42.33 -70.56,-52.92 -419.81,-52.92 -232.83,0 -430.39,-10.58 -437.44,-28.22 -10.58,-14.11 88.19,-370.42 218.72,-790.22l232.83 -769.06 765.53 0 765.53 0 197.56 624.42c109.36,345.72 218.72,694.97 246.94,776.11 24.69,81.14 38.81,155.22 24.69,165.81 -10.58,10.58 -183.44,21.17 -384.53,21.17 -299.86,0 -363.36,10.58 -363.36,52.92 0,45.86 148.17,52.92 1111.25,52.92 963.08,0 1111.25,-7.06 1111.25,-52.92 0,-42.33 -59.97,-52.92 -317.5,-52.92 -296.33,0 -321.03,-7.06 -356.31,-81.14 -17.64,-42.33 -398.64,-1252.36 -839.61,-2688.17 -790.22,-2561.17 -871.36,-2779.89 -934.86,-2568.22zm123.47 2522.36l338.67 1086.56 -719.67 0c-606.78,0 -719.67,-7.06 -705.56,-49.39 10.58,-28.22 165.81,-522.11 342.19,-1104.19 179.92,-578.56 335.14,-1065.39 345.72,-1086.56 10.58,-17.64 28.22,-7.06 38.81,17.64 7.06,28.22 169.33,539.75 359.83,1135.94l0.01 0z"/>
  <path class="fil0" d="M-7456.38 10316.81c0,38.81 67.03,52.92 328.08,59.97l324.56 10.58 0 2592.92 0 2592.92 -324.56 10.58c-261.06,7.06 -328.08,21.17 -328.08,59.97 0,45.86 268.11,52.92 2007.31,52.92 1778,0 2014.36,-7.06 2063.75,-56.44 49.39,-45.86 56.44,-172.86 56.44,-832.56 0,-920.75 -31.75,-966.61 -197.56,-303.39 -158.75,627.94 -285.75,846.67 -571.5,987.78 -158.75,77.61 -201.08,81.14 -1065.39,81.14l-899.58 0 0 -2592.92 0 -2592.92 363.36 -10.58c289.28,-7.06 359.83,-21.17 359.83,-59.97 0,-45.86 -151.69,-52.92 -1058.33,-52.92 -906.64,0 -1058.33,7.06 -1058.33,52.92z"/>
  <path class="fil0" d="M4185.28 10313.28c0,45.86 56.44,56.44 335.14,56.44l335.14 0 0 2610.55 0 2610.55 -335.14 0c-275.17,0 -335.14,10.58 -335.14,52.92 0,81.14 2384.78,77.61 2779.89,-3.53 762,-155.22 1393.47,-730.25 1668.64,-1516.94 310.44,-899.58 243.42,-1964.97 -169.33,-2702.28 -285.75,-504.47 -694.97,-850.19 -1227.67,-1040.69l-282.22 -98.78 -1382.89 -10.58c-1234.72,-10.58 -1386.42,-3.53 -1386.42,42.33l0 0.01zm2734.03 144.64c497.42,176.39 800.81,571.5 973.67,1270 91.72,363.36 130.53,1425.22 70.56,1982.61 -84.67,811.39 -328.08,1358.19 -723.19,1629.83 -250.47,172.86 -500.94,225.78 -1097.14,229.31l-529.17 3.53 -10.58 -2557.64c-3.53,-1407.58 0,-2578.8 10.58,-2607.03 28.22,-74.08 1065.39,-31.75 1305.28,49.39l-0.01 0z"/>
  <path class="fil0" d="M19326.5 10306.22c-17.64,24.69 -52.92,282.22 -74.08,575.03 -24.69,289.28 -49.39,613.83 -63.5,712.61 -17.64,179.92 -14.11,186.97 67.03,186.97 74.08,0 88.19,-24.69 127,-229.31 91.72,-483.31 296.33,-864.31 564.44,-1054.81 141.11,-98.78 172.86,-105.83 571.5,-119.94l423.33 -14.11 0 2614.08 0 2614.08 -317.5 0c-257.53,0 -317.5,10.58 -317.5,52.92 0,45.86 137.58,52.92 1023.06,52.92 874.89,0 1023.06,-7.06 1023.06,-52.92 0,-38.81 -67.03,-52.92 -324.56,-59.97l-328.08 -10.58 -10.58 -2603.5 -7.06 -2599.97 342.19 0c437.44,0 578.56,42.33 772.58,218.72 190.5,176.39 345.72,479.78 444.5,881.94 59.97,250.47 88.19,310.44 141.11,310.44 49.39,0 63.5,-28.22 63.5,-116.42 0,-201.08 -105.83,-1333.5 -123.47,-1368.78 -14.11,-17.64 -825.5,-31.75 -1989.67,-31.75 -1534.58,0 -1979.08,10.58 -2007.31,42.33l0.01 0.02z"/>
  <path class="fil0" d="M3395.06 18607.08c-162.28,56.44 -388.06,268.11 -479.78,440.97 -275.17,539.75 -84.67,1270 402.17,1524 201.08,109.36 546.81,109.36 747.89,0 603.25,-313.97 709.08,-1298.22 194.03,-1781.53 -246.94,-229.31 -553.86,-296.33 -864.31,-183.44zm557.39 134.06c67.03,91.72 74.08,155.22 84.67,740.83 7.06,349.25 3.53,709.08 -10.58,793.75 -31.75,204.61 -148.17,324.56 -317.5,324.56 -324.56,0 -370.42,-119.94 -370.42,-959.56 0,-899.58 45.86,-1026.58 363.36,-1008.94 144.64,7.06 190.5,28.22 250.47,109.36z"/>
  <path class="fil0" d="M-4711.77 18614.14l77.61 14.11 0 970.14c0,941.92 0,966.61 -70.56,966.61 -38.81,0 -70.56,17.64 -70.56,38.81 0,28.22 155.22,35.28 504.47,24.69 490.36,-10.58 511.53,-14.11 677.33,-116.42 546.81,-342.19 560.92,-1414.64 21.17,-1799.17 -151.69,-105.83 -151.69,-105.83 -684.39,-112.89 -296.33,-3.53 -500.94,3.53 -455.08,14.11l0.01 0.01zm776.11 49.39c67.03,21.17 127,81.14 162.28,155.22 84.67,172.86 137.58,659.69 109.36,1005.42 -42.33,564.44 -130.53,740.83 -377.47,740.83l-134.06 0 0 -945.44c0,-522.11 10.58,-959.56 24.69,-970.14 31.75,-35.28 88.19,-31.75 215.19,14.11l0.01 0z"/>
  <path class="fil0" d="M-2912.61 18614.14l77.61 14.11 0 970.14c0,941.92 0,966.61 -70.56,966.61 -38.81,0 -70.56,14.11 -70.56,35.28 0,21.17 148.17,35.28 370.42,35.28 222.25,0 370.42,-14.11 370.42,-35.28 0,-21.17 -31.75,-35.28 -70.56,-35.28 -70.56,0 -70.56,-24.69 -70.56,-966.61l0 -970.14 81.14 -14.11c42.33,-7.06 -95.25,-14.11 -310.44,-14.11 -211.67,0 -352.78,7.06 -306.92,14.11l0.01 0z"/>
  <path class="fil0" d="M-1490.91 19425.53c-310.44,1012.47 -363.36,1139.47 -458.61,1139.47 -42.33,0 -74.08,14.11 -74.08,35.28 0,21.17 95.25,35.28 211.67,35.28 116.42,0 211.67,-14.11 211.67,-35.28 0,-21.17 -24.69,-35.28 -52.92,-35.28 -91.72,0 -98.78,-95.25 -35.28,-335.14l63.5 -229.31 289.28 0 285.75 0 77.61 239.89c91.72,285.75 95.25,324.56 24.69,324.56 -28.22,0 -52.92,14.11 -52.92,35.28 0,21.17 148.17,35.28 370.42,35.28 222.25,0 370.42,-14.11 370.42,-35.28 0,-21.17 -35.28,-35.28 -81.14,-35.28 -74.08,0 -102.31,-70.56 -381,-980.72l-303.39 -977.19 -105.83 -10.58 -105.83 -10.58 -254 839.61 -0.01 -0.01zm264.58 0c49.39,172.86 105.83,352.78 123.47,405.69l28.22 98.78 -261.06 0 -261.06 0 28.22 -98.78c109.36,-363.36 222.25,-712.61 232.83,-712.61 7.06,0 56.44,137.58 109.36,306.92l0.02 0z"/>
  <path class="fil0" d="M-55.11 18614.14l77.61 14.11 0 970.14c0,941.92 0,966.61 -70.56,966.61 -38.81,0 -70.56,14.11 -70.56,35.28 0,21.17 148.17,35.28 370.42,35.28 222.25,0 370.42,-14.11 370.42,-35.28 0,-21.17 -31.75,-35.28 -70.56,-35.28 -67.03,0 -70.56,-24.69 -70.56,-476.25l0 -476.25 123.47 0c201.08,0 264.58,95.25 264.58,395.11 0,141.11 17.64,317.5 35.28,388.06 70.56,254 324.56,345.72 553.86,204.61 109.36,-67.03 208.14,-201.08 176.39,-236.36 -10.58,-7.06 -35.28,17.64 -59.97,56.44 -21.17,42.33 -74.08,74.08 -119.94,74.08 -98.78,0 -127,-98.78 -127,-423.33 0,-169.33 -17.64,-225.78 -88.19,-310.44 -49.39,-59.97 -137.58,-119.94 -197.56,-130.53l-109.36 -24.69 137.58 -63.5c77.61,-35.28 176.39,-105.83 218.72,-162.28 67.03,-84.67 77.61,-134.06 67.03,-306.92 -10.58,-162.28 -35.28,-222.25 -112.89,-303.39 -137.58,-144.64 -328.08,-179.92 -892.53,-176.39 -268.11,3.53 -451.56,14.11 -405.69,21.17l0.01 0zm878.42 134.05c144.64,162.28 137.58,596.19 -14.11,733.78 -35.28,28.22 -123.47,63.5 -194.03,77.61l-134.06 24.69 0 -483.31 0 -483.31 134.06 21.17c70.56,14.11 165.81,63.5 208.14,109.36l0 0.01z"/>
  <path class="fil0" d="M1885.17 18614.14l77.61 14.11 0 970.14c0,941.92 0,966.61 -70.56,966.61 -38.81,0 -70.56,14.11 -70.56,35.28 0,21.17 148.17,35.28 370.42,35.28 222.25,0 370.42,-14.11 370.42,-35.28 0,-21.17 -31.75,-35.28 -70.56,-35.28 -70.56,0 -70.56,-24.69 -70.56,-966.61l0 -970.14 81.14 -14.11c42.33,-7.06 -95.25,-14.11 -310.44,-14.11 -211.67,0 -352.78,7.06 -306.92,14.11l0.01 0z"/>
  <path class="fil0" d="M5659.89 18614.14l77.61 14.11 0 970.14c0,941.92 0,966.61 -70.56,966.61 -38.81,0 -70.56,14.11 -70.56,35.28 0,21.17 148.17,35.28 370.42,35.28 222.25,0 370.42,-14.11 370.42,-35.28 0,-21.17 -31.75,-35.28 -70.56,-35.28 -70.56,0 -70.56,-24.69 -70.56,-966.61l0 -970.14 81.14 -14.11c42.33,-7.06 -95.25,-14.11 -310.44,-14.11 -211.67,0 -352.78,7.06 -306.92,14.11l0.01 0z"/>
  <path class="fil0" d="M6548.89 18628.25c0,21.17 38.81,88.19 88.19,151.69 88.19,116.42 88.19,116.42 88.19,913.69 0,762 -3.53,800.81 -70.56,843.14 -112.89,70.56 -84.67,98.78 105.83,98.78 98.78,0 176.39,-17.64 176.39,-35.28 0,-21.17 -24.69,-35.28 -52.92,-35.28 -105.83,0 -123.47,-134.06 -116.42,-853.72l10.58 -716.14 543.28 818.44c296.33,451.56 564.44,821.97 589.14,821.97 42.33,0 49.39,-165.81 49.39,-931.33 0,-511.53 10.58,-956.03 21.17,-987.78 10.58,-31.75 42.33,-56.44 70.56,-56.44 28.22,0 49.39,-17.64 49.39,-35.28 0,-21.17 -81.14,-35.28 -179.92,-35.28l-183.44 0 95.25 88.19c91.72,84.67 91.72,88.19 91.72,617.36 0,289.28 -7.06,529.17 -14.11,529.17 -7.06,0 -194.03,-278.69 -412.75,-617.36l-398.64 -617.36 -275.17 0c-172.86,0 -275.17,14.11 -275.17,38.81l0.02 0.01z"/>
  <path class="fil0" d="M8341 18614.14l77.61 14.11 0 970.14c0,941.92 0,966.61 -70.56,966.61 -38.81,0 -70.56,14.11 -70.56,35.28 0,49.39 825.5,45.86 1005.42,-3.53 208.14,-56.44 444.5,-317.5 525.64,-575.03 84.67,-264.58 67.03,-709.08 -38.81,-941.92 -95.25,-211.67 -292.81,-405.69 -458.61,-451.56 -74.08,-21.17 -338.67,-35.28 -592.67,-35.28 -250.47,3.53 -423.33,14.11 -377.47,21.17l0.01 0.01zm857.25 102.3c119.94,109.36 172.86,381 172.86,896.06 0,712.61 -88.19,952.5 -359.83,952.5l-134.06 0 0 -973.67 0 -977.19 127 21.17c70.56,10.58 158.75,49.39 194.03,81.14l0 -0.01z"/>
  <path class="fil0" d="M10076.67 18621.19l88.19 24.69 10.58 959.56c7.06,941.92 7.06,959.56 -63.5,959.56 -38.81,0 -70.56,14.11 -70.56,35.28 0,21.17 246.94,35.28 670.28,35.28 772.58,0 740.83,17.64 740.83,-366.89 0,-271.64 -52.92,-328.08 -109.36,-119.94 -88.19,338.67 -183.44,416.28 -508,416.28l-194.03 0 0 -493.89 0 -493.89 105.83 0c134.06,0 282.22,137.58 282.22,264.58 0,49.39 17.64,88.19 35.28,88.19 21.17,0 35.28,-148.17 35.28,-370.42 0,-222.25 -14.11,-370.42 -35.28,-370.42 -17.64,0 -35.28,38.81 -35.28,84.67 0,137.58 -127,268.11 -268.11,268.11l-119.94 0 0 -462.14 0 -465.67 183.44 21.17c239.89,28.22 345.72,112.89 440.97,345.72l77.61 190.5 3.53 -236.36c0,-370.42 52.92,-345.72 -702.03,-342.19 -359.83,3.53 -617.36,14.11 -567.97,28.22l0.02 0z"/>
  <path class="fil0" d="M11692.39 18614.14l77.61 14.11 0 970.14c0,941.92 0,966.61 -70.56,966.61 -38.81,0 -70.56,14.11 -70.56,35.28 0,21.17 148.17,35.28 370.42,35.28 222.25,0 370.42,-14.11 370.42,-35.28 0,-21.17 -31.75,-35.28 -70.56,-35.28 -67.03,0 -70.56,-24.69 -70.56,-440.97l0 -440.97 239.89 0c423.33,0 624.42,-169.33 624.42,-529.17 0,-222.25 -56.44,-335.14 -243.42,-472.72 -88.19,-67.03 -151.69,-74.08 -666.75,-81.14 -313.97,0 -536.22,3.53 -490.36,14.11l0.01 0zm772.58 63.5c236.36,67.03 250.47,804.33 17.64,931.33 -42.33,21.17 -112.89,38.81 -162.28,38.81l-91.72 0 0 -486.83c0,-268.11 10.58,-500.94 24.69,-511.53 14.11,-14.11 49.39,-17.64 77.61,-10.58 31.75,7.06 91.72,24.69 134.06,38.81l0 -0.01z"/>
  <path class="fil0" d="M13322.22 18621.19l88.19 24.69 10.58 959.56c7.06,941.92 7.06,959.56 -63.5,959.56 -38.81,0 -70.56,14.11 -70.56,35.28 0,21.17 246.94,35.28 670.28,35.28 772.58,0 740.83,17.64 740.83,-366.89 0,-271.64 -52.92,-328.08 -109.36,-119.94 -88.19,338.67 -183.44,416.28 -508,416.28l-194.03 0 0 -493.89 0 -493.89 105.83 0c134.06,0 282.22,137.58 282.22,264.58 0,49.39 17.64,88.19 35.28,88.19 21.17,0 35.28,-148.17 35.28,-370.42 0,-222.25 -14.11,-370.42 -35.28,-370.42 -17.64,0 -35.28,38.81 -35.28,84.67 0,137.58 -127,268.11 -268.11,268.11l-119.94 0 0 -462.14 0 -465.67 183.44 21.17c239.89,28.22 345.72,112.89 440.97,345.72l77.61 190.5 3.53 -236.36c0,-370.42 52.92,-345.72 -702.03,-342.19 -359.83,3.53 -617.36,14.11 -567.97,28.22l0.02 0z"/>
  <path class="fil0" d="M14874.44 18631.78c0,21.17 38.81,91.72 88.19,155.22 88.19,116.42 88.19,116.42 88.19,910.17 0,758.47 -3.53,797.28 -70.56,839.61 -109.36,70.56 -84.67,98.78 88.19,98.78 172.86,0 197.56,-28.22 88.19,-98.78 -67.03,-42.33 -70.56,-81.14 -70.56,-790.22 0,-483.31 10.58,-737.31 35.28,-712.61 17.64,17.64 261.06,381 536.22,807.86 285.75,437.44 532.69,779.64 567.97,786.69 56.44,10.58 59.97,-59.97 59.97,-963.08 0,-945.44 3.53,-977.19 70.56,-994.83 134.06,-35.28 70.56,-81.14 -112.89,-81.14 -186.97,0 -186.97,3.53 -105.83,63.5 77.61,59.97 77.61,74.08 70.56,606.78l-10.58 543.28 -388.06 -606.78 -388.06 -606.78 -271.64 0c-186.97,0 -275.17,14.11 -275.17,42.33l0.03 0z"/>
  <path class="fil0" d="M16666.55 18624.72l77.61 31.75 0 956.03c0,927.81 0,952.5 -70.56,952.5 -38.81,0 -70.56,14.11 -70.56,35.28 0,49.39 825.5,45.86 998.36,-3.53 186.97,-49.39 388.06,-243.42 486.83,-465.67 116.42,-264.58 119.94,-776.11 3.53,-1030.11 -102.31,-222.25 -232.83,-359.83 -412.75,-444.5 -116.42,-52.92 -225.78,-63.5 -617.36,-63.5 -321.03,0 -451.56,10.58 -395.11,31.75l0.01 0zm860.78 95.25c119.94,109.36 151.69,292.81 151.69,892.53 0,779.64 -67.03,952.5 -359.83,952.5l-116.42 0 0 -973.67 0 -973.67 134.06 24.69c70.56,14.11 158.75,49.39 190.5,77.61l0 0.01z"/>
  <path class="fil0" d="M18437.5 18621.19l88.19 24.69 10.58 959.56c7.06,941.92 7.06,959.56 -63.5,959.56 -38.81,0 -70.56,14.11 -70.56,35.28 0,21.17 148.17,35.28 370.42,35.28 222.25,0 370.42,-14.11 370.42,-35.28 0,-21.17 -31.75,-35.28 -70.56,-35.28 -70.56,0 -70.56,-24.69 -70.56,-966.61l0 -970.14 81.14 -14.11c42.33,-7.06 -105.83,-14.11 -328.08,-17.64 -222.25,0 -366.89,10.58 -317.5,24.69l0.01 0z"/>
  <path class="fil0" d="M19390 18621.19l88.19 24.69 10.58 959.56c7.06,941.92 7.06,959.56 -63.5,959.56 -38.81,0 -70.56,14.11 -70.56,35.28 0,21.17 246.94,35.28 670.28,35.28 772.58,0 740.83,17.64 740.83,-366.89 0,-271.64 -52.92,-328.08 -109.36,-119.94 -88.19,338.67 -183.44,416.28 -508,416.28l-194.03 0 0 -493.89 0 -493.89 105.83 0c134.06,0 282.22,137.58 282.22,264.58 0,49.39 17.64,88.19 35.28,88.19 21.17,0 35.28,-148.17 35.28,-370.42 0,-222.25 -14.11,-370.42 -35.28,-370.42 -17.64,0 -35.28,38.81 -35.28,84.67 0,137.58 -127,268.11 -268.11,268.11l-119.94 0 0 -462.14 0 -465.67 183.44 21.17c239.89,28.22 345.72,112.89 440.97,345.72l77.61 190.5 3.53 -236.36c0,-370.42 52.92,-345.72 -702.03,-342.19 -359.83,3.53 -617.36,14.11 -567.97,28.22l0.02 0z"/>
  <path class="fil0" d="M20942.22 18628.25c0,21.17 38.81,88.19 88.19,151.69 88.19,116.42 88.19,116.42 88.19,913.69 0,762 -3.53,800.81 -70.56,843.14 -112.89,70.56 -84.67,98.78 105.83,98.78 98.78,0 176.39,-17.64 176.39,-35.28 0,-21.17 -24.69,-35.28 -52.92,-35.28 -105.83,0 -123.47,-134.06 -116.42,-853.72l10.58 -716.14 543.28 818.44c296.33,451.56 564.44,821.97 589.14,821.97 42.33,0 49.39,-165.81 49.39,-931.33 0,-511.53 10.58,-956.03 21.17,-987.78 10.58,-31.75 42.33,-56.44 70.56,-56.44 28.22,0 49.39,-17.64 49.39,-35.28 0,-21.17 -81.14,-35.28 -179.92,-35.28l-183.44 0 95.25 88.19c91.72,84.67 91.72,88.19 91.72,617.36 0,289.28 -7.06,529.17 -14.11,529.17 -7.06,0 -194.03,-278.69 -412.75,-617.36l-398.64 -617.36 -275.17 0c-172.86,0 -275.17,14.11 -275.17,38.81l0.02 0.01z"/>
  <path class="fil0" d="M22695.52 18614.14c-31.75,56.44 -63.5,575.03 -35.28,575.03 17.64,0 49.39,-70.56 74.08,-158.75 52.92,-197.56 201.08,-363.36 352.78,-391.58l112.89 -24.69 0 977.19c0,948.97 0,973.67 -70.56,973.67 -38.81,0 -70.56,14.11 -70.56,35.28 0,21.17 148.17,35.28 370.42,35.28 222.25,0 370.42,-14.11 370.42,-35.28 0,-21.17 -31.75,-35.28 -70.56,-35.28 -70.56,0 -70.56,-24.69 -70.56,-973.67l0 -977.19 116.42 24.69c148.17,28.22 296.33,194.03 345.72,391.58 56.44,229.31 105.83,194.03 81.14,-63.5 -35.28,-423.33 52.92,-377.47 -772.58,-377.47 -395.11,0 -726.72,10.58 -733.78,24.69l0.01 0z"/>
  <path class="fil0" d="M24427.66 18614.14l77.61 14.11 0 970.14c0,941.92 0,966.61 -70.56,966.61 -38.81,0 -70.56,14.11 -70.56,35.28 0,21.17 250.47,35.28 684.39,35.28 592.67,0 687.92,-7.06 705.56,-56.44 31.75,-84.67 24.69,-578.56 -7.06,-578.56 -17.64,0 -56.44,95.25 -88.19,208.14 -81.14,285.75 -172.86,356.31 -469.19,356.31l-225.78 0 0 -493.89 0 -493.89 123.47 0c144.64,0 264.58,102.31 264.58,225.78 0,49.39 17.64,98.78 35.28,109.36 21.17,14.11 35.28,-112.89 35.28,-352.78 0,-239.89 -14.11,-366.89 -35.28,-352.78 -17.64,10.58 -35.28,59.97 -35.28,109.36 0,123.47 -119.94,225.78 -264.58,225.78l-123.47 0 0 -458.61 0 -458.61 98.78 0c285.75,0 511.53,165.81 557.39,405.69 38.81,208.14 67.03,109.36 49.39,-165.81l-17.64 -257.53 -652.64 -3.53c-359.83,-3.53 -617.36,0 -571.5,10.58l0 0.01z"/>
 </g>
</svg>
