<?xml version="1.0" standalone="no"?>
<!DOCTYPE svg PUBLIC "-//W3C//DTD SVG 20010904//EN"
 "http://www.w3.org/TR/2001/REC-SVG-20010904/DTD/svg10.dtd">
<svg version="1.0" xmlns="http://www.w3.org/2000/svg"
 width="1640.000000pt" height="484.000000pt" viewBox="0 0 1640.000000 484.000000"
 preserveAspectRatio="xMidYMid meet">

<g transform="translate(0.000000,484.000000) scale(0.100000,-0.100000)"
fill="#000000" stroke="none">
<path d="M1150 4555 c-214 -174 -252 -241 -266 -473 -4 -64 -10 -126 -14 -137
-7 -19 -8 -18 -13 5 -3 14 -10 49 -16 78 -6 30 -11 94 -11 143 0 60 -4 88 -10
84 -12 -7 -101 -189 -145 -295 -15 -36 -37 -87 -50 -115 -45 -100 -75 -197
-81 -263 -6 -61 -2 -79 35 -191 62 -183 36 -179 -41 7 -64 155 -74 130 -26
-68 12 -49 41 -125 69 -180 66 -126 65 -146 -3 -90 -20 16 -53 55 -73 86 -30
45 -40 53 -46 41 -20 -34 -48 -237 -65 -457 -9 -119 14 -186 157 -464 39 -78
-4 -51 -67 40 -21 30 -41 54 -44 54 -31 0 -24 -402 9 -545 5 -22 15 -67 21
-100 20 -100 42 -131 160 -233 45 -39 36 -48 -23 -22 -58 26 -182 26 -182 0 0
-10 15 -17 45 -21 113 -17 214 -71 306 -165 84 -85 126 -190 196 -484 6 -25
24 -92 40 -150 74 -262 126 -381 204 -465 41 -45 45 -47 39 -23 -3 15 -19 51
-36 80 -42 71 -84 179 -129 333 -66 221 -78 275 -96 421 -17 136 -17 145 0
218 21 90 64 160 164 266 107 113 121 145 132 292 11 142 23 200 57 278 l25
55 -17 95 c-10 52 -19 97 -21 99 -7 8 -74 -80 -122 -162 -61 -103 -92 -140
-92 -108 0 21 101 220 139 274 78 111 39 81 -66 -50 -67 -84 -93 -108 -93 -85
0 24 59 122 144 241 77 108 96 143 101 180 13 93 43 250 60 314 5 19 3 27 -6
27 -23 0 -168 -89 -291 -179 -10 -8 -21 -12 -23 -9 -9 9 137 190 207 258 37
36 72 79 78 95 19 48 38 192 42 305 4 125 -1 129 -83 58 -30 -25 -67 -58 -84
-72 -29 -25 -60 -35 -53 -17 2 5 50 57 107 117 57 60 112 127 121 149 15 32
19 77 23 232 3 105 3 194 0 197 -3 3 -42 -28 -86 -69 -113 -106 -128 -102 -46
10 48 65 98 154 120 212 9 24 8 23 -31 -9 -79 -64 -90 -72 -95 -66 -4 3 7 33
24 67 33 65 37 94 20 155 -25 90 -109 246 -133 246 -6 0 -36 -21 -66 -45z"/>
<path d="M15146 4560 c-32 -49 -80 -153 -95 -206 -17 -61 -13 -90 20 -155 17
-34 28 -64 24 -67 -5 -6 -16 2 -95 66 -39 32 -40 33 -31 9 22 -58 72 -147 120
-212 82 -112 67 -116 -46 -10 -44 41 -83 72 -86 69 -3 -3 -3 -92 0 -197 4
-155 8 -200 23 -232 9 -22 64 -89 121 -149 57 -60 106 -112 107 -117 7 -18
-24 -8 -53 17 -16 14 -54 47 -84 72 -82 71 -87 67 -83 -58 4 -113 23 -257 42
-305 6 -16 41 -59 78 -95 70 -68 216 -249 207 -258 -2 -3 -13 1 -23 9 -123 90
-268 179 -291 179 -9 0 -11 -8 -6 -27 17 -64 47 -221 60 -314 5 -37 24 -72
101 -180 85 -119 144 -217 144 -241 0 -23 -26 1 -93 85 -105 131 -144 161 -66
50 38 -54 139 -253 139 -274 0 -32 -31 5 -92 108 -48 82 -115 170 -122 162 -2
-2 -11 -47 -21 -99 l-17 -95 25 -55 c34 -78 46 -136 57 -278 11 -147 25 -179
132 -292 100 -106 143 -176 164 -266 17 -73 17 -82 0 -218 -18 -146 -30 -200
-96 -421 -45 -154 -87 -262 -129 -333 -17 -29 -33 -65 -36 -80 -6 -24 -2 -22
39 23 78 84 130 203 204 465 16 58 34 125 40 150 70 294 112 399 196 484 92
94 193 148 306 165 30 4 45 11 45 21 0 26 -124 26 -182 0 -59 -26 -68 -17 -23
22 118 102 140 133 160 233 6 33 16 78 21 100 33 143 40 545 9 545 -3 0 -23
-24 -44 -54 -63 -91 -106 -118 -67 -40 143 278 166 345 157 464 -17 220 -45
423 -65 457 -6 12 -16 4 -46 -41 -20 -31 -53 -70 -73 -86 -68 -56 -69 -36 -3
90 28 55 57 131 69 180 48 198 38 223 -26 68 -77 -186 -103 -190 -41 -7 37
112 41 130 35 191 -6 66 -36 163 -81 263 -13 28 -35 79 -50 115 -44 106 -133
288 -145 295 -6 4 -10 -24 -10 -84 0 -49 -5 -113 -11 -143 -6 -29 -13 -64 -16
-78 -5 -23 -6 -24 -13 -5 -4 11 -10 73 -14 137 -14 230 -59 310 -263 471 -33
26 -65 47 -70 47 -6 0 -22 -18 -37 -40z"/>
<path d="M8455 3743 c-92 -12 -214 -70 -297 -140 -121 -101 -224 -269 -269
-438 -31 -114 -31 -327 -1 -438 63 -231 209 -431 380 -520 96 -50 162 -67 265
-67 282 0 528 220 633 565 25 81 28 105 27 240 0 134 -3 160 -27 239 -113 373
-402 600 -711 559z m154 -43 c123 -20 197 -77 252 -194 58 -122 64 -176 64
-556 0 -295 -3 -356 -18 -420 -36 -155 -119 -276 -219 -321 -45 -20 -69 -24
-158 -24 -95 0 -111 3 -162 28 -102 50 -165 141 -210 303 -21 74 -22 100 -23
424 0 297 2 356 18 421 33 141 109 264 190 306 31 16 136 41 177 42 14 1 54
-4 89 -9z"/>
<path d="M9900 3735 c-256 -58 -467 -302 -532 -615 -23 -111 -20 -284 7 -384
42 -158 122 -302 225 -406 128 -130 254 -190 398 -190 129 0 229 38 316 120
l51 48 63 -74 c35 -41 67 -72 72 -69 14 9 13 475 0 475 -6 0 -28 -37 -49 -83
-83 -179 -178 -293 -288 -345 -52 -24 -70 -27 -163 -27 -94 0 -110 3 -156 27
-84 44 -146 129 -182 248 -37 121 -44 227 -40 540 4 260 7 304 26 372 45 165
109 256 214 303 54 25 75 28 153 28 66 0 104 -6 142 -21 118 -45 215 -148 273
-289 18 -43 36 -82 41 -88 5 -5 9 79 9 207 0 129 -4 219 -10 223 -5 3 -33 -20
-62 -50 l-54 -57 -53 36 c-104 70 -272 100 -401 71z"/>
<path d="M5036 3723 c-14 -50 -439 -1425 -452 -1465 l-16 -48 -88 0 c-69 0
-89 -3 -94 -15 -5 -13 25 -15 234 -15 207 0 240 2 240 15 0 12 -20 15 -119 15
-66 0 -122 3 -124 8 -3 4 25 105 62 224 l66 218 217 0 217 0 56 -177 c31 -98
62 -197 70 -220 7 -23 11 -44 7 -47 -3 -3 -52 -6 -109 -6 -85 0 -103 -3 -103
-15 0 -13 42 -15 315 -15 273 0 315 2 315 15 0 12 -17 15 -90 15 -84 0 -91 2
-101 23 -5 12 -113 355 -238 762 -224 726 -247 788 -265 728z m35 -715 l96
-308 -204 0 c-172 0 -204 2 -200 14 3 8 47 148 97 313 51 164 95 302 98 308 3
5 8 2 11 -5 2 -8 48 -153 102 -322z"/>
<path d="M12626 3723 c-14 -50 -439 -1425 -452 -1465 l-16 -48 -88 0 c-69 0
-89 -3 -94 -15 -5 -13 25 -15 234 -15 207 0 240 2 240 15 0 12 -20 15 -119 15
-66 0 -122 3 -124 8 -3 4 25 105 62 224 l66 218 217 0 217 0 56 -177 c31 -98
62 -197 70 -220 7 -23 11 -44 7 -47 -3 -3 -52 -6 -109 -6 -85 0 -103 -3 -103
-15 0 -13 42 -15 315 -15 273 0 315 2 315 15 0 12 -17 15 -90 15 -84 0 -91 2
-101 23 -5 12 -113 355 -238 762 -224 726 -247 788 -265 728z m35 -715 l96
-308 -204 0 c-172 0 -204 2 -200 14 3 8 47 148 97 313 51 164 95 302 98 308 3
5 8 2 11 -5 2 -8 48 -153 102 -322z"/>
<path d="M3110 3705 c0 -11 19 -15 93 -17 l92 -3 0 -735 0 -735 -92 -3 c-74
-2 -93 -6 -93 -17 0 -13 76 -15 569 -15 504 0 571 2 585 16 14 13 16 49 16
236 0 261 -9 274 -56 86 -45 -178 -81 -240 -162 -280 -45 -22 -57 -23 -302
-23 l-255 0 0 735 0 735 103 3 c82 2 102 6 102 17 0 13 -43 15 -300 15 -257 0
-300 -2 -300 -15z"/>
<path d="M6410 3706 c0 -13 16 -16 95 -16 l95 0 0 -740 0 -740 -95 0 c-78 0
-95 -3 -95 -15 0 -23 676 -22 788 1 216 44 395 207 473 430 88 255 69 557 -48
766 -81 143 -197 241 -348 295 l-80 28 -392 3 c-350 3 -393 1 -393 -12z m775
-41 c141 -50 227 -162 276 -360 26 -103 37 -404 20 -562 -24 -230 -93 -385
-205 -462 -71 -49 -142 -64 -311 -65 l-150 -1 -3 725 c-1 399 0 731 3 739 8
21 302 9 370 -14z"/>
<path d="M10702 3708 c-5 -7 -15 -80 -21 -163 -7 -82 -14 -174 -18 -202 -5
-51 -4 -53 19 -53 21 0 25 7 36 65 26 137 84 245 160 299 40 28 49 30 162 34
l120 4 0 -741 0 -741 -90 0 c-73 0 -90 -3 -90 -15 0 -13 39 -15 290 -15 248 0
290 2 290 15 0 11 -19 15 -92 17 l-93 3 -3 738 -2 737 97 0 c124 0 164 -12
219 -62 54 -50 98 -136 126 -250 17 -71 25 -88 40 -88 14 0 18 8 18 33 0 57
-30 378 -35 388 -4 5 -234 9 -564 9 -435 0 -561 -3 -569 -12z"/>
<path d="M6186 1355 c-46 -16 -110 -76 -136 -125 -78 -153 -24 -360 114 -432
57 -31 155 -31 212 0 171 89 201 368 55 505 -70 65 -157 84 -245 52z m158 -38
c19 -26 21 -44 24 -210 2 -99 1 -201 -3 -225 -9 -58 -42 -92 -90 -92 -92 0
-105 34 -105 272 0 255 13 291 103 286 41 -2 54 -8 71 -31z"/>
<path d="M3888 1353 l22 -4 0 -275 c0 -267 0 -274 -20 -274 -11 0 -20 -5 -20
-11 0 -8 44 -10 143 -7 139 3 145 4 192 33 155 97 159 401 6 510 -43 30 -43
30 -194 32 -84 1 -142 -1 -129 -4z m220 -14 c19 -6 36 -23 46 -44 24 -49 39
-187 31 -285 -12 -160 -37 -210 -107 -210 l-38 0 0 268 c0 148 3 272 7 275 9
10 25 9 61 -4z"/>
<path d="M4398 1353 l22 -4 0 -275 c0 -267 0 -274 -20 -274 -11 0 -20 -4 -20
-10 0 -6 42 -10 105 -10 63 0 105 4 105 10 0 6 -9 10 -20 10 -20 0 -20 7 -20
274 l0 275 23 4 c12 2 -27 4 -88 4 -60 0 -100 -2 -87 -4z"/>
<path d="M4801 1123 c-88 -287 -103 -323 -130 -323 -12 0 -21 -4 -21 -10 0 -6
27 -10 60 -10 33 0 60 4 60 10 0 6 -7 10 -15 10 -26 0 -28 27 -10 95 l18 65
82 0 81 0 22 -68 c26 -81 27 -92 7 -92 -8 0 -15 -4 -15 -10 0 -6 42 -10 105
-10 63 0 105 4 105 10 0 6 -10 10 -23 10 -21 0 -29 20 -108 278 l-86 277 -30
3 -30 3 -72 -238z m75 0 c14 -49 30 -100 35 -115 l8 -28 -74 0 -74 0 8 28 c31
103 63 202 66 202 2 0 16 -39 31 -87z"/>
<path d="M5208 1353 l22 -4 0 -275 c0 -267 0 -274 -20 -274 -11 0 -20 -4 -20
-10 0 -6 42 -10 105 -10 63 0 105 4 105 10 0 6 -9 10 -20 10 -19 0 -20 7 -20
135 l0 135 35 0 c57 0 75 -27 75 -112 0 -40 5 -90 10 -110 20 -72 92 -98 157
-58 31 19 59 57 50 67 -3 2 -10 -5 -17 -16 -6 -12 -21 -21 -34 -21 -28 0 -36
28 -36 120 0 48 -5 64 -25 88 -14 17 -39 34 -56 37 l-31 7 39 18 c22 10 50 30
62 46 19 24 22 38 19 87 -3 46 -10 63 -32 86 -39 41 -93 51 -253 50 -76 -1
-128 -4 -115 -6z m249 -38 c41 -46 39 -169 -4 -208 -10 -8 -35 -18 -55 -22
l-38 -7 0 137 0 137 38 -6 c20 -4 47 -18 59 -31z"/>
<path d="M5758 1353 l22 -4 0 -275 c0 -267 0 -274 -20 -274 -11 0 -20 -4 -20
-10 0 -6 42 -10 105 -10 63 0 105 4 105 10 0 6 -9 10 -20 10 -20 0 -20 7 -20
274 l0 275 23 4 c12 2 -27 4 -88 4 -60 0 -100 -2 -87 -4z"/>
<path d="M6828 1353 l22 -4 0 -275 c0 -267 0 -274 -20 -274 -11 0 -20 -4 -20
-10 0 -6 42 -10 105 -10 63 0 105 4 105 10 0 6 -9 10 -20 10 -20 0 -20 7 -20
274 l0 275 23 4 c12 2 -27 4 -88 4 -60 0 -100 -2 -87 -4z"/>
<path d="M7080 1349 c0 -6 11 -25 25 -43 25 -33 25 -33 25 -259 0 -216 -1
-227 -20 -239 -32 -20 -24 -28 30 -28 28 0 50 5 50 10 0 6 -7 10 -15 10 -30 0
-35 38 -33 242 l3 203 154 -232 c84 -128 160 -233 167 -233 12 0 14 47 14 264
0 145 3 271 6 280 3 9 12 16 20 16 8 0 14 5 14 10 0 6 -23 10 -51 10 l-52 0
27 -25 c26 -24 26 -25 26 -175 0 -82 -2 -150 -4 -150 -2 0 -55 79 -117 175
l-113 175 -78 0 c-49 0 -78 -4 -78 -11z"/>
<path d="M7588 1353 l22 -4 0 -275 c0 -267 0 -274 -20 -274 -11 0 -20 -4 -20
-10 0 -14 234 -13 285 1 59 16 126 90 149 163 24 75 19 201 -11 267 -27 60
-83 115 -130 128 -21 6 -96 10 -168 10 -71 -1 -120 -4 -107 -6z m243 -29 c34
-31 49 -108 49 -254 0 -202 -25 -270 -102 -270 l-38 0 0 276 0 277 36 -6 c20
-3 45 -14 55 -23z"/>
<path d="M8080 1351 l25 -7 3 -272 c2 -267 2 -272 -18 -272 -11 0 -20 -4 -20
-10 0 -6 70 -10 190 -10 219 0 210 -5 210 104 0 77 -15 93 -31 34 -25 -96 -52
-118 -144 -118 l-55 0 0 140 0 140 30 0 c38 0 80 -39 80 -75 0 -14 5 -25 10
-25 6 0 10 42 10 105 0 63 -4 105 -10 105 -5 0 -10 -11 -10 -24 0 -39 -36 -76
-76 -76 l-34 0 0 131 0 132 52 -6 c68 -8 98 -32 125 -98 l22 -54 1 67 c0 105
15 98 -199 97 -102 -1 -175 -4 -161 -8z"/>
<path d="M8538 1353 l22 -4 0 -275 c0 -267 0 -274 -20 -274 -11 0 -20 -4 -20
-10 0 -6 42 -10 105 -10 63 0 105 4 105 10 0 6 -9 10 -20 10 -19 0 -20 7 -20
125 l0 125 68 0 c120 0 177 48 177 150 0 63 -16 95 -69 134 -25 19 -43 21
-189 23 -89 0 -152 -1 -139 -4z m219 -18 c67 -19 71 -228 5 -264 -12 -6 -32
-11 -46 -11 l-26 0 0 138 c0 76 3 142 7 145 4 4 14 5 22 3 9 -2 26 -7 38 -11z"/>
<path d="M9000 1351 l25 -7 3 -272 c2 -267 2 -272 -18 -272 -11 0 -20 -4 -20
-10 0 -6 70 -10 190 -10 219 0 210 -5 210 104 0 77 -15 93 -31 34 -25 -96 -52
-118 -144 -118 l-55 0 0 140 0 140 30 0 c38 0 80 -39 80 -75 0 -14 5 -25 10
-25 6 0 10 42 10 105 0 63 -4 105 -10 105 -5 0 -10 -11 -10 -24 0 -39 -36 -76
-76 -76 l-34 0 0 131 0 132 52 -6 c68 -8 98 -32 125 -98 l22 -54 1 67 c0 105
15 98 -199 97 -102 -1 -175 -4 -161 -8z"/>
<path d="M9440 1348 c0 -6 11 -26 25 -44 25 -33 25 -33 25 -258 0 -215 -1
-226 -20 -238 -31 -20 -24 -28 25 -28 49 0 56 8 25 28 -19 12 -20 23 -20 224
0 137 3 209 10 202 5 -5 74 -108 152 -229 81 -124 151 -221 161 -223 16 -3 17
17 17 273 0 268 1 277 20 282 38 10 20 23 -32 23 -53 0 -53 -1 -30 -18 22 -17
22 -21 20 -172 l-3 -154 -110 172 -110 172 -77 0 c-53 0 -78 -4 -78 -12z"/>
<path d="M9948 1350 l22 -9 0 -271 c0 -263 0 -270 -20 -270 -11 0 -20 -4 -20
-10 0 -14 234 -13 283 1 53 14 110 69 138 132 33 75 34 220 1 292 -29 63 -66
102 -117 126 -33 15 -64 18 -175 18 -91 0 -128 -3 -112 -9z m244 -27 c34 -31
43 -83 43 -253 0 -221 -19 -270 -102 -270 l-33 0 0 276 0 276 38 -7 c20 -4 45
-14 54 -22z"/>
<path d="M10450 1351 l25 -7 3 -272 c2 -267 2 -272 -18 -272 -11 0 -20 -4 -20
-10 0 -6 42 -10 105 -10 63 0 105 4 105 10 0 6 -9 10 -20 10 -20 0 -20 7 -20
274 l0 275 23 4 c12 2 -30 4 -93 5 -63 0 -104 -3 -90 -7z"/>
<path d="M10720 1351 l25 -7 3 -272 c2 -267 2 -272 -18 -272 -11 0 -20 -4 -20
-10 0 -6 70 -10 190 -10 219 0 210 -5 210 104 0 77 -15 93 -31 34 -25 -96 -52
-118 -144 -118 l-55 0 0 140 0 140 30 0 c38 0 80 -39 80 -75 0 -14 5 -25 10
-25 6 0 10 42 10 105 0 63 -4 105 -10 105 -5 0 -10 -11 -10 -24 0 -39 -36 -76
-76 -76 l-34 0 0 131 0 132 52 -6 c68 -8 98 -32 125 -98 l22 -54 1 67 c0 105
15 98 -199 97 -102 -1 -175 -4 -161 -8z"/>
<path d="M11160 1349 c0 -6 11 -25 25 -43 25 -33 25 -33 25 -259 0 -216 -1
-227 -20 -239 -32 -20 -24 -28 30 -28 28 0 50 5 50 10 0 6 -7 10 -15 10 -30 0
-35 38 -33 242 l3 203 154 -232 c84 -128 160 -233 167 -233 12 0 14 47 14 264
0 145 3 271 6 280 3 9 12 16 20 16 8 0 14 5 14 10 0 6 -23 10 -51 10 l-52 0
27 -25 c26 -24 26 -25 26 -175 0 -82 -2 -150 -4 -150 -2 0 -55 79 -117 175
l-113 175 -78 0 c-49 0 -78 -4 -78 -11z"/>
<path d="M11657 1353 c-9 -16 -18 -163 -10 -163 5 0 14 20 21 45 15 56 57 103
100 111 l32 7 0 -277 c0 -269 0 -276 -20 -276 -11 0 -20 -4 -20 -10 0 -6 42
-10 105 -10 63 0 105 4 105 10 0 6 -9 10 -20 10 -20 0 -20 7 -20 276 l0 277
33 -7 c42 -8 84 -55 98 -111 16 -65 30 -55 23 18 -10 120 15 107 -219 107
-112 0 -206 -3 -208 -7z"/>
<path d="M12148 1353 l22 -4 0 -275 c0 -267 0 -274 -20 -274 -11 0 -20 -4 -20
-10 0 -6 71 -10 194 -10 168 0 195 2 200 16 9 24 7 164 -2 164 -5 0 -16 -27
-25 -59 -23 -81 -49 -101 -133 -101 l-64 0 0 140 0 140 35 0 c41 0 75 -29 75
-64 0 -14 5 -28 10 -31 6 -4 10 32 10 100 0 68 -4 104 -10 100 -5 -3 -10 -17
-10 -31 0 -35 -34 -64 -75 -64 l-35 0 0 130 0 130 28 0 c81 0 145 -47 158
-115 11 -59 19 -31 14 47 l-5 73 -185 1 c-102 1 -175 0 -162 -3z"/>
</g>
</svg>
